<svg width="687" height="285" viewBox="0 0 687 285" fill="none" xmlns="http://www.w3.org/2000/svg">
<rect width="687" height="285" fill="#0F0F10"/>
<path d="M176.705 76.7423C175.19 77.4434 173.698 78.9586 173.042 80.4286C172.047 82.6902 172.476 86.1955 174.059 88.3892C174.987 89.7009 176.14 90.6055 178.175 91.578C180.821 92.8897 181.703 93.2289 183.151 93.5455C185.05 93.9978 185.616 94.0431 185.797 93.7717C185.887 93.6134 186.023 93.048 186.136 92.5278C186.226 91.9851 186.43 91.0805 186.543 90.4698C187.289 87.0323 187.38 81.9891 186.747 80.5869C186.181 79.3657 183.988 77.0815 183.377 77.0815C183.241 77.0815 183.151 76.9685 183.151 76.8554C183.151 76.7197 182.947 76.6292 182.721 76.6292C182.472 76.6292 182.201 76.5162 182.133 76.4031C182.065 76.2674 181.07 76.1769 179.917 76.1995C178.221 76.1995 177.633 76.3126 176.705 76.7423Z" fill="white"/>
<path d="M174.105 95.7392V97.4354H163.882L162.39 98.9732C157.754 103.655 147.984 113.764 147.939 113.899C147.893 113.99 149.816 115.98 152.19 118.355C154.565 120.707 156.713 122.9 156.94 123.194L157.369 123.737L157.731 122.878C158.161 121.837 160.174 119.825 160.784 119.825C161.01 119.825 161.214 119.757 161.214 119.689C161.214 119.598 160.942 119.259 160.603 118.943C160.241 118.603 159.314 117.586 158.5 116.681C157.686 115.754 156.894 114.872 156.759 114.714C156.6 114.555 156.465 114.329 156.465 114.239C156.465 113.99 158.455 112.045 162.005 108.834C163.498 107.477 164.968 106.097 165.262 105.758C165.556 105.396 165.963 105.125 166.167 105.125C166.619 105.125 167.094 105.554 167.094 105.961C167.094 106.12 167.275 106.685 167.524 107.228C167.75 107.748 168.179 108.788 168.473 109.535C168.745 110.281 169.197 111.389 169.491 112.022C170.961 115.369 171.662 117.066 172.748 119.825C173.404 121.498 173.992 122.923 174.059 122.991C174.127 123.059 174.195 122.991 174.263 122.855C174.308 122.719 175.529 120.865 176.999 118.739C178.447 116.591 180.369 113.764 181.228 112.452C182.11 111.118 182.97 109.851 183.173 109.625C183.377 109.399 184.372 107.906 185.412 106.323C186.453 104.74 187.99 102.388 188.827 101.144L190.365 98.8601L189.415 98.7018C188.239 98.4983 185.525 98.1591 183.716 97.9781C182.97 97.9103 182.269 97.752 182.133 97.6389C182.02 97.5258 181.342 97.4354 180.618 97.4354C179.374 97.4354 178.673 97.2092 178.017 96.5986C177.836 96.4403 177.406 96.1463 177.045 95.9201C176.66 95.7166 176.366 95.4452 176.366 95.3548C176.366 95.2643 176.208 95.1738 176.027 95.1738C175.846 95.1738 175.688 95.0834 175.688 94.9929C175.688 94.812 174.512 94.0431 174.24 94.0431C174.172 94.0431 174.105 94.812 174.105 95.7392Z" fill="white"/>
<path d="M194.481 109.376L194.458 115.505L195.928 118.445L197.421 121.362L207.915 121.182L207.802 120.661C207.643 119.825 207.666 117.043 207.869 116.251L208.073 115.528H200.881L198.032 109.806C196.449 106.685 195.024 103.903 194.843 103.677C194.572 103.293 194.526 104.039 194.481 109.376Z" fill="white"/>
<path d="M188.578 108.246C187.402 110.055 185.706 112.61 184.802 113.922C183.897 115.234 182.246 117.699 181.138 119.372C178.65 123.104 176.728 125.908 175.756 127.197L175.009 128.192L176.434 129.142C178.243 130.386 182.246 132.942 182.382 132.942C182.45 132.942 183.241 133.439 184.168 134.072C185.096 134.683 185.955 135.203 186.091 135.203C186.204 135.203 186.317 135.294 186.317 135.429C186.317 135.542 186.453 135.655 186.634 135.655C186.814 135.655 186.995 135.746 187.041 135.836C187.131 136.108 190.636 138.437 190.75 138.301C190.795 138.256 190.817 130.725 190.795 121.589L190.727 104.944L188.578 108.246Z" fill="white"/>
<path d="M162.526 122.9C161.508 123.443 160.603 124.732 160.445 125.863C160.287 127.062 160.581 128.373 161.169 129.029C161.372 129.3 161.938 129.708 162.412 129.979C164.176 130.974 166.596 130.318 167.524 128.599C168.089 127.536 168.157 125.546 167.682 124.619C167.343 123.963 166.619 123.285 165.805 122.81C165.126 122.448 163.294 122.493 162.526 122.9Z" fill="white"/>
<path d="M211.616 114.867C210.598 115.41 209.694 116.699 209.535 117.83C209.377 119.028 209.671 120.34 210.259 120.996C210.463 121.267 211.028 121.674 211.503 121.946C213.267 122.941 215.687 122.285 216.614 120.566C217.179 119.503 217.247 117.513 216.772 116.586C216.433 115.93 215.709 115.251 214.895 114.776C214.217 114.415 212.385 114.46 211.616 114.867Z" fill="white"/>
<path d="M172.431 131.743C172.341 131.946 172.295 133.959 172.295 136.198C172.318 139.364 172.431 155.105 172.476 158.271C172.476 158.587 172.408 167.023 172.318 177.042C172.25 187.06 172.205 195.315 172.25 195.405C172.295 195.564 173.11 195.315 174.67 194.682C174.919 194.591 175.484 194.388 175.914 194.229C176.344 194.071 176.909 193.867 177.158 193.777C177.406 193.664 177.768 193.551 177.949 193.506C178.221 193.415 178.266 191.425 178.198 178.308C178.13 163.857 178.153 163.201 178.56 162.907C178.786 162.726 179.193 162.568 179.487 162.568C179.758 162.568 180.166 162.477 180.392 162.364C180.595 162.251 181.455 161.844 182.291 161.437C185.299 159.99 188.307 156.552 189.754 152.956C190.546 151.011 190.84 149.021 190.84 145.787V142.711L188.33 141.083C186.95 140.201 184.802 138.867 183.558 138.12C182.314 137.374 180.233 136.062 178.944 135.18C177.655 134.321 176.502 133.62 176.366 133.62C176.253 133.62 176.14 133.507 176.14 133.394C176.14 133.258 176.027 133.168 175.891 133.168C175.756 133.168 175.077 132.761 174.353 132.263C173.652 131.766 172.951 131.358 172.816 131.358C172.68 131.358 172.499 131.539 172.431 131.743Z" fill="white"/>
<path d="M114.965 134.728C114.898 134.864 114.581 134.977 114.287 134.977C113.767 134.977 111.867 135.859 111.731 136.153C111.686 136.266 111.55 136.334 111.415 136.334C110.985 136.334 108.249 139.161 107.276 140.653C106.733 141.468 106.1 142.847 105.829 143.706C105.376 145.199 105.354 145.832 105.354 157.23C105.331 163.812 105.376 169.217 105.422 169.262C105.625 169.465 108.294 168.81 109.379 168.267C110.058 167.95 111.189 167.091 111.912 166.39C113.224 165.078 114.061 163.789 114.92 161.776C115.35 160.713 115.395 160.103 115.531 152.843C115.644 145.154 115.666 145.018 116.209 143.91C116.503 143.277 117.023 142.485 117.34 142.146C117.634 141.784 118.72 141.015 119.715 140.405C120.71 139.794 121.795 139.048 122.112 138.776C122.768 138.188 124.441 136.108 124.328 136.04C124.192 135.949 122.926 135.384 122.428 135.18C121.456 134.796 120.506 134.683 117.86 134.592C116.096 134.525 115.078 134.592 114.965 134.728Z" fill="white"/>
<path d="M134.641 134.751C134.573 134.864 134.166 134.977 133.736 134.977C133.306 134.977 132.899 135.067 132.832 135.203C132.764 135.316 132.492 135.429 132.266 135.429C131.633 135.429 129.417 136.696 127.834 137.962C125.821 139.568 124.351 141.626 123.559 143.933C122.655 146.511 122.542 147.913 122.542 157.072V165.937L121.411 167.453C120.8 168.267 119.76 169.556 119.104 170.302C118.448 171.048 117.521 172.179 117.046 172.835L116.164 173.988L116.254 183.758L116.322 193.551H121.931L121.773 190.385C121.682 188.643 121.682 185.138 121.773 182.605L121.931 177.991L143.031 156.71L143.008 145.629V134.525H138.892C136.405 134.525 134.731 134.615 134.641 134.751Z" fill="white"/>
<path d="M146.604 134.886C146.672 135.09 146.74 140.02 146.74 145.855V156.462H147.396C147.78 156.462 148.142 156.552 148.21 156.688C148.278 156.801 148.64 156.914 149.002 156.914C149.363 156.914 149.725 157.004 149.793 157.14C149.861 157.253 150.223 157.366 150.607 157.366C150.969 157.366 151.263 157.457 151.263 157.592C151.263 157.705 151.557 157.818 151.919 157.818C152.303 157.818 152.643 157.909 152.71 158.022C152.778 158.135 153.072 158.271 153.344 158.339C153.638 158.384 155.696 159.017 157.935 159.741C160.174 160.442 162.616 161.166 163.362 161.346C164.109 161.527 164.9 161.776 165.104 161.912C165.33 162.025 165.76 162.115 166.054 162.115C166.37 162.115 166.687 162.206 166.755 162.342C166.822 162.455 167.139 162.568 167.433 162.568C167.727 162.568 168.044 162.658 168.112 162.794C168.179 162.907 168.315 163.02 168.406 163.02C168.496 163.02 168.564 156.597 168.586 148.772V134.525H157.528C147.532 134.525 146.469 134.57 146.604 134.886Z" fill="white"/>
<path d="M193.712 153.001C193.667 153.092 193.486 153.589 193.35 154.087C193.192 154.584 192.694 155.76 192.242 156.688C191.586 157.999 190.908 158.881 189.234 160.578C188.013 161.799 186.928 162.794 186.792 162.794C186.656 162.794 186.543 162.884 186.543 163.02C186.543 163.156 189.37 163.178 194.3 163.088C202.012 162.952 202.08 162.952 202.193 163.404C202.329 163.879 201.334 168.086 200.7 169.714C200.293 170.822 199.14 174.735 198.778 176.273C198.529 177.29 198.552 177.652 198.959 179.1C199.208 180.027 199.524 181.248 199.683 181.836C199.931 182.899 199.931 182.899 200.406 182.447C200.655 182.22 201.017 182.017 201.175 182.017C201.334 182.017 201.469 181.904 201.469 181.791C201.469 181.655 201.582 181.565 201.718 181.565C202.216 181.565 203.278 180.615 203.278 180.185C203.278 179.936 203.369 179.574 203.482 179.348C203.595 179.145 203.912 178.195 204.183 177.268C204.454 176.34 204.816 175.164 204.975 174.667C205.133 174.169 205.45 173.039 205.653 172.179C206.038 170.551 206.264 169.85 207.688 165.553C208.457 163.224 208.525 162.839 208.39 161.437C208.322 160.578 208.118 159.492 207.96 159.017C207.756 158.339 207.462 158.022 206.558 157.547C205.924 157.208 204.251 156.552 202.826 156.1C201.401 155.625 200.135 155.172 200.022 155.059C199.886 154.969 199.57 154.878 199.276 154.878C198.982 154.878 198.552 154.765 198.303 154.652C198.054 154.517 197.647 154.313 197.398 154.2C197.15 154.064 196.788 153.974 196.607 153.974C196.426 153.974 196.268 153.861 196.268 153.748C196.268 153.612 196.042 153.522 195.748 153.522C195.454 153.522 195.137 153.431 195.024 153.318C194.685 153.001 193.825 152.798 193.712 153.001Z" fill="white"/>
<path d="M143.642 161.482C142.647 162.522 140.34 164.784 138.531 166.525L135.251 169.692L135.093 171.795C135.025 172.971 134.912 174.192 134.844 174.509L134.731 175.119H137.513C139.051 175.119 140.521 175.21 140.815 175.3C141.29 175.481 141.697 175.142 144.456 172.36C149.092 167.701 150.585 165.892 152.349 162.749L152.801 161.957L152.077 161.708C151.67 161.55 151.127 161.437 150.856 161.437C150.607 161.437 150.313 161.324 150.245 161.211C150.178 161.075 149.816 160.985 149.454 160.985C149.092 160.985 148.73 160.872 148.662 160.758C148.594 160.623 148.233 160.532 147.848 160.532C147.486 160.532 147.192 160.419 147.192 160.306C147.192 160.17 146.898 160.08 146.559 160.08C146.22 160.08 145.813 159.967 145.7 159.854C145.541 159.696 144.886 160.216 143.642 161.482Z" fill="white"/>
<path d="M193.486 178.76C193.396 178.851 192.853 178.964 192.265 179.032C191.654 179.077 191.157 179.145 191.111 179.19C191.089 179.213 191.089 181.225 191.111 183.668L191.179 188.1L192.197 187.467C193.396 186.721 195.273 185.658 195.974 185.319C196.268 185.183 196.494 184.957 196.494 184.844C196.494 184.708 196.268 183.849 196.019 182.922C195.567 181.316 195.182 179.529 195.16 178.896C195.137 178.738 194.82 178.625 194.391 178.625C193.961 178.625 193.554 178.692 193.486 178.76Z" fill="white"/>
<path d="M135.41 179.801C135.658 180.208 136.337 181.723 136.902 183.148C137.988 185.839 140.408 191.515 140.996 192.804L141.335 193.551H147.441L147.124 192.918C146.944 192.578 146.672 191.99 146.514 191.628C146.356 191.244 146.152 190.769 146.039 190.566C145.926 190.339 145.835 190.068 145.835 189.932C145.835 189.819 145.541 189.05 145.157 188.236C144.795 187.422 144.478 186.698 144.478 186.653C144.478 186.585 144.275 186.11 144.026 185.568C143.777 185.047 143.076 183.396 142.466 181.904L141.335 179.19L134.98 179.054L135.41 179.801Z" fill="white"/>
<path d="M178.424 197.192C177.542 197.554 176.276 198.096 175.869 198.323C175.642 198.436 175.281 198.526 175.054 198.526C174.286 198.526 174.105 199.001 174.105 200.946V202.823H178.085C180.279 202.823 182.02 202.755 181.975 202.642C181.93 202.552 181.387 201.466 180.754 200.2C180.12 198.956 179.555 197.712 179.487 197.441C179.329 196.898 179.216 196.875 178.424 197.192Z" fill="white"/>
<path d="M117.34 198.798C117.34 199.702 117.408 200.991 117.476 201.624L117.634 202.823H125.436L124.916 201.738C124.622 201.15 124.057 199.883 123.672 198.911L122.949 197.169H117.34V198.798Z" fill="white"/>
<path d="M142.986 197.667C143.076 197.961 143.302 199.227 143.529 200.494L143.89 202.823H151.218L150.336 200.72C149.838 199.589 149.296 198.3 149.115 197.893L148.775 197.169H142.85L142.986 197.667Z" fill="white"/>
<path d="M275.172 186.918C270.14 186.918 265.72 185.354 261.912 182.226C258.172 179.098 255.248 174.712 253.14 169.068C251.1 163.356 250.08 156.624 250.08 148.872C250.08 141.392 251.202 134.864 253.446 129.288C255.758 123.644 258.818 119.292 262.626 116.232C266.502 113.104 270.786 111.54 275.478 111.54C278.266 111.54 280.714 111.812 282.822 112.356C284.93 112.832 286.8 113.478 288.432 114.294C289.248 114.77 289.656 115.484 289.656 116.436L289.962 131.94C289.962 133.096 289.554 133.674 288.738 133.674C287.99 133.674 287.514 133.232 287.31 132.348L286.29 128.574C284.862 123.27 283.196 119.598 281.292 117.558C279.456 115.518 277.246 114.498 274.662 114.498C269.902 114.498 265.924 117.456 262.728 123.372C259.6 129.22 258.036 137.72 258.036 148.872C258.036 156.488 258.818 162.914 260.382 168.15C262.014 173.386 264.088 177.33 266.604 179.982C269.188 182.634 271.908 183.96 274.764 183.96C277.824 183.96 280.272 183.008 282.108 181.104C284.012 179.2 285.61 175.528 286.902 170.088L288.126 165.09C288.33 164.07 288.874 163.628 289.758 163.764C290.506 163.9 290.88 164.478 290.88 165.498L290.472 182.022C290.472 182.974 290.03 183.688 289.146 184.164C287.514 184.98 285.576 185.626 283.332 186.102C281.156 186.646 278.436 186.918 275.172 186.918Z" fill="white"/>
<path d="M300.516 186C299.496 186 298.986 185.626 298.986 184.878C298.986 184.266 299.428 183.858 300.312 183.654L302.658 183.246C304.086 182.974 305.004 182.6 305.412 182.124C305.888 181.648 306.126 180.696 306.126 179.268V119.292C306.126 117.864 305.888 116.912 305.412 116.436C305.004 115.96 304.086 115.586 302.658 115.314L300.312 114.906C299.428 114.702 298.986 114.294 298.986 113.682C298.986 112.934 299.496 112.56 300.516 112.56H334.788C336.352 112.56 337.202 113.342 337.338 114.906L338.154 131.838C338.29 132.994 337.848 133.572 336.828 133.572C336.012 133.572 335.536 133.13 335.4 132.246L334.788 128.472C334.04 123.848 332.51 120.482 330.198 118.374C327.886 116.198 324.69 115.11 320.61 115.11C317.89 115.11 315.986 115.518 314.898 116.334C313.878 117.082 313.368 118.442 313.368 120.414V144.996C313.368 145.948 313.844 146.424 314.796 146.424H319.896C322.888 146.424 324.724 144.826 325.404 141.63L326.424 136.53C326.696 135.51 327.274 135.068 328.158 135.204C328.906 135.34 329.28 135.918 329.28 136.938V159.888C329.28 160.908 328.906 161.486 328.158 161.622C327.274 161.758 326.696 161.316 326.424 160.296L325.404 155.298C324.928 152.918 324.248 151.354 323.364 150.606C322.548 149.858 321.358 149.484 319.794 149.484H314.796C313.844 149.484 313.368 149.96 313.368 150.912V176.514C313.368 178.962 313.98 180.73 315.204 181.818C316.496 182.906 318.808 183.45 322.14 183.45C325.54 183.45 328.43 182.6 330.81 180.9C333.258 179.132 334.958 175.868 335.91 171.108L337.134 165.09C337.338 164.206 337.848 163.764 338.664 163.764C339.616 163.764 340.024 164.342 339.888 165.498L338.868 183.654C338.732 185.218 337.882 186 336.318 186H300.516Z" fill="white"/>
<path d="M389.065 186.918C387.977 186.918 387.059 186.102 386.311 184.47L358.669 124.494C358.465 124.018 358.193 123.814 357.853 123.882C357.581 123.95 357.445 124.256 357.445 124.8V177.228C357.445 179.132 357.751 180.594 358.363 181.614C359.043 182.566 360.233 183.178 361.933 183.45L363.259 183.654C364.143 183.722 364.585 184.13 364.585 184.878C364.585 185.626 364.075 186 363.055 186H348.469C347.449 186 346.939 185.626 346.939 184.878C346.939 184.13 347.381 183.722 348.265 183.654L349.591 183.45C351.359 183.178 352.583 182.566 353.263 181.614C353.943 180.594 354.283 179.132 354.283 177.228V119.292C354.283 117.864 354.045 116.912 353.569 116.436C353.161 115.96 352.175 115.586 350.611 115.314L348.265 114.906C347.381 114.702 346.939 114.294 346.939 113.682C346.939 112.934 347.449 112.56 348.469 112.56H359.383C361.083 112.56 362.273 113.308 362.953 114.804L387.025 167.742C387.229 168.15 387.467 168.32 387.739 168.252C388.079 168.184 388.249 167.946 388.249 167.538V121.332C388.249 119.156 387.875 117.66 387.127 116.844C386.379 115.96 385.427 115.416 384.271 115.212L382.435 114.906C381.551 114.702 381.109 114.294 381.109 113.682C381.109 112.934 381.619 112.56 382.639 112.56H397.225C398.245 112.56 398.755 112.934 398.755 113.682C398.755 114.43 398.313 114.838 397.429 114.906L396.103 115.11C394.335 115.382 393.111 115.96 392.431 116.844C391.751 117.66 391.411 119.156 391.411 121.332V183.654C391.411 184.878 391.173 185.728 390.697 186.204C390.289 186.68 389.745 186.918 389.065 186.918Z" fill="white"/>
<path d="M414.467 186C413.447 186 412.937 185.626 412.937 184.878C412.937 184.13 413.379 183.722 414.263 183.654L418.853 182.94C420.213 182.736 421.131 182.396 421.607 181.92C422.083 181.376 422.321 180.39 422.321 178.962V117.762C422.321 116.81 422.117 116.13 421.709 115.722C421.301 115.314 420.451 115.11 419.159 115.11C416.643 115.11 414.161 116.198 411.713 118.374C409.265 120.55 407.667 124.052 406.919 128.88L406.409 132.246C406.273 133.13 405.797 133.572 404.981 133.572C403.961 133.572 403.519 132.994 403.655 131.838L404.573 113.376C404.709 111.812 405.321 111.03 406.409 111.03C406.885 111.03 407.327 111.166 407.735 111.438C408.143 111.642 408.823 111.88 409.775 112.152C410.795 112.424 412.393 112.56 414.569 112.56H437.315C439.491 112.56 441.055 112.424 442.007 112.152C443.027 111.88 443.741 111.642 444.149 111.438C444.625 111.166 445.067 111.03 445.475 111.03C446.563 111.03 447.175 111.812 447.311 113.376L448.229 131.838C448.365 132.994 447.923 133.572 446.903 133.572C446.087 133.572 445.611 133.13 445.475 132.246L444.965 128.88C444.285 124.052 442.721 120.55 440.273 118.374C437.825 116.198 435.309 115.11 432.725 115.11C431.433 115.11 430.583 115.314 430.175 115.722C429.767 116.13 429.563 116.81 429.563 117.762V178.962C429.563 180.39 429.801 181.376 430.277 181.92C430.821 182.396 431.739 182.736 433.031 182.94L437.621 183.654C438.505 183.722 438.947 184.13 438.947 184.878C438.947 185.626 438.437 186 437.417 186H414.467Z" fill="white"/>
<path d="M446.897 186C445.877 186 445.367 185.66 445.367 184.98C445.367 184.3 445.843 183.858 446.795 183.654L448.325 183.348C449.685 183.076 450.705 182.43 451.385 181.41C452.065 180.322 452.643 178.826 453.119 176.922L468.929 113.172C469.065 112.492 469.269 112.05 469.541 111.846C469.881 111.642 470.187 111.54 470.459 111.54C470.799 111.54 471.105 111.642 471.377 111.846C471.717 112.05 471.955 112.492 472.091 113.172L488.207 177.84C488.683 179.744 489.227 181.07 489.839 181.818C490.451 182.566 491.403 183.076 492.695 183.348L494.225 183.654C495.177 183.858 495.653 184.3 495.653 184.98C495.653 185.66 495.143 186 494.123 186H476.681C475.729 186 475.253 185.626 475.253 184.878C475.253 184.13 475.831 183.722 476.987 183.654L478.925 183.45C480.081 183.314 480.795 182.94 481.067 182.328C481.407 181.716 481.407 180.662 481.067 179.166L477.191 163.356C476.783 161.588 475.661 160.704 473.825 160.704H463.115C461.347 160.704 460.225 161.588 459.749 163.356L456.281 177.024C455.261 180.9 456.281 183.042 459.341 183.45L460.871 183.654C462.027 183.858 462.605 184.266 462.605 184.878C462.605 185.626 462.129 186 461.177 186H446.897ZM462.809 157.644H474.029C475.117 157.644 475.559 157.066 475.355 155.91L468.827 128.574H468.317L461.483 155.91C461.279 157.066 461.721 157.644 462.809 157.644Z" fill="white"/>
<path d="M520.225 186.918C516.553 186.918 513.289 186.068 510.433 184.368C507.645 182.6 505.469 180.186 503.905 177.126C502.341 173.998 501.559 170.428 501.559 166.416V119.292C501.559 117.864 501.321 116.912 500.845 116.436C500.437 115.96 499.519 115.586 498.091 115.314L495.745 114.906C494.861 114.702 494.419 114.294 494.419 113.682C494.419 112.934 494.929 112.56 495.949 112.56H514.615C515.635 112.56 516.145 112.968 516.145 113.784C516.145 114.396 515.771 114.77 515.023 114.906L512.269 115.314C510.909 115.518 509.991 115.892 509.515 116.436C509.039 116.98 508.801 117.966 508.801 119.394V166.518C508.801 171.686 509.957 175.698 512.269 178.554C514.581 181.41 517.811 182.838 521.959 182.838C526.175 182.838 529.439 181.41 531.751 178.554C534.063 175.698 535.219 171.686 535.219 166.518V121.434C535.219 117.762 534.063 115.722 531.751 115.314L528.997 114.906C528.249 114.77 527.875 114.396 527.875 113.784C527.875 112.968 528.385 112.56 529.405 112.56H544.093C545.113 112.56 545.623 112.934 545.623 113.682C545.623 114.294 545.181 114.702 544.297 114.906L541.951 115.314C539.639 115.722 538.483 117.728 538.483 121.332V166.416C538.483 172.604 536.817 177.568 533.485 181.308C530.153 185.048 525.733 186.918 520.225 186.918Z" fill="white"/>
<path d="M594.8 186.918C588.884 186.918 585.11 183.042 583.478 175.29L581.132 163.968C580.384 160.296 579.534 157.508 578.582 155.604C577.698 153.7 576.44 152.408 574.808 151.728C573.244 151.048 571.068 150.708 568.28 150.708C567.328 150.708 566.58 150.98 566.036 151.524C565.492 152 565.22 152.612 565.22 153.36V178.86C565.22 180.288 565.492 181.274 566.036 181.818C566.58 182.294 567.804 182.702 569.708 183.042L573.482 183.654C574.23 183.79 574.604 184.164 574.604 184.776C574.604 185.592 574.094 186 573.074 186H552.368C551.348 186 550.838 185.626 550.838 184.878C550.838 184.266 551.28 183.858 552.164 183.654L554.51 183.246C555.938 182.974 556.856 182.6 557.264 182.124C557.74 181.648 557.978 180.696 557.978 179.268V119.292C557.978 117.864 557.74 116.912 557.264 116.436C556.856 115.96 555.938 115.586 554.51 115.314L552.164 114.906C551.28 114.702 550.838 114.294 550.838 113.682C550.838 112.934 551.348 112.56 552.368 112.56H573.074C577.086 112.56 580.656 113.342 583.784 114.906C586.912 116.47 589.36 118.646 591.128 121.434C592.896 124.154 593.78 127.316 593.78 130.92C593.78 135.204 592.488 139.08 589.904 142.548C587.32 145.948 584.056 148.362 580.112 149.79C579.636 149.926 579.364 150.164 579.296 150.504C579.296 150.776 579.534 151.014 580.01 151.218C582.186 152.238 583.886 153.666 585.11 155.502C586.402 157.338 587.388 159.786 588.068 162.846L590.312 173.25C591.06 176.786 591.944 179.302 592.964 180.798C593.984 182.294 595.276 183.042 596.84 183.042C597.384 183.042 597.86 182.974 598.268 182.838C598.744 182.634 599.322 182.294 600.002 181.818C600.546 181.478 601.056 181.41 601.532 181.614C602.008 181.75 602.246 182.09 602.246 182.634C602.246 183.79 601.498 184.81 600.002 185.694C598.506 186.51 596.772 186.918 594.8 186.918ZM572.054 148.158C576.678 148.158 580.18 146.628 582.56 143.568C584.94 140.44 586.13 136.292 586.13 131.124C586.13 126.092 584.736 122.182 581.948 119.394C579.228 116.538 575.454 115.11 570.626 115.11C567.022 115.11 565.22 116.47 565.22 119.19V142.548C565.22 146.288 567.498 148.158 572.054 148.158Z" fill="white"/>
</svg>
