<svg width="497" height="127" viewBox="0 0 497 127" fill="none" xmlns="http://www.w3.org/2000/svg">
<path d="M71.3576 0.546232C69.8423 1.24731 68.3497 2.76254 67.6939 4.23254C66.6988 6.49408 67.1285 9.99946 68.7116 12.1932C69.6388 13.5048 70.7922 14.4095 72.8276 15.3819C75.4736 16.6936 76.3556 17.0328 77.8029 17.3495C79.7026 17.8018 80.268 17.847 80.4489 17.5756C80.5394 17.4173 80.6751 16.8519 80.7882 16.3318C80.8786 15.789 81.0822 14.8844 81.1953 14.2738C81.9416 10.8362 82.032 5.793 81.3988 4.39085C80.8334 3.16962 78.6397 0.885463 78.0291 0.885463C77.8934 0.885463 77.8029 0.772386 77.8029 0.659309C77.8029 0.523616 77.5994 0.433155 77.3733 0.433155C77.1245 0.433155 76.8531 0.320079 76.7853 0.207002C76.7174 0.0713097 75.7223 -0.019152 74.5689 0.00346341C72.8728 0.00346341 72.2848 0.116541 71.3576 0.546232Z" fill="white"/>
<path d="M68.7568 19.5431V21.2393H58.5346L57.042 22.7771C52.4059 27.4585 42.636 37.5676 42.5908 37.7033C42.5456 37.7938 44.4679 39.7839 46.8425 42.1585C49.2171 44.5105 51.3656 46.7042 51.5917 46.9982L52.0214 47.541L52.3832 46.6816C52.8129 45.6413 54.8257 43.6285 55.4363 43.6285C55.6625 43.6285 55.866 43.5607 55.866 43.4928C55.866 43.4024 55.5946 43.0632 55.2554 42.7465C54.8936 42.4073 53.9663 41.3896 53.1522 40.485C52.338 39.5578 51.5465 38.6758 51.4108 38.5175C51.2525 38.3591 51.1168 38.133 51.1168 38.0425C51.1168 37.7938 53.1069 35.8488 56.6576 32.6375C58.1502 31.2805 59.6202 29.901 59.9142 29.5618C60.2082 29.1999 60.6152 28.9285 60.8188 28.9285C61.2711 28.9285 61.746 29.3582 61.746 29.7653C61.746 29.9236 61.9269 30.489 62.1757 31.0318C62.4019 31.5519 62.8316 32.5922 63.1256 33.3385C63.3969 34.0848 63.8492 35.193 64.1432 35.8262C65.6132 39.1733 66.3143 40.8695 67.3999 43.6285C68.0557 45.3021 68.6437 46.7268 68.7115 46.7947C68.7794 46.8625 68.8472 46.7947 68.9151 46.659C68.9603 46.5233 70.1816 44.6688 71.6516 42.543C73.0989 40.3945 75.0212 37.5676 75.8806 36.2559C76.7626 34.9216 77.622 33.6551 77.8256 33.429C78.0291 33.2028 79.0242 31.7102 80.0645 30.1271C81.1048 28.5441 82.6426 26.1921 83.4794 24.9482L85.0172 22.6641L84.0674 22.5058C82.8914 22.3022 80.1776 21.963 78.3683 21.7821C77.622 21.7142 76.9209 21.5559 76.7852 21.4428C76.6722 21.3298 75.9937 21.2393 75.27 21.2393C74.0262 21.2393 73.3251 21.0131 72.6692 20.4025C72.4883 20.2442 72.0586 19.9502 71.6968 19.7241C71.3123 19.5205 71.0183 19.2491 71.0183 19.1587C71.0183 19.0682 70.86 18.9778 70.6791 18.9778C70.4982 18.9778 70.3399 18.8873 70.3399 18.7968C70.3399 18.6159 69.1639 17.847 68.8925 17.847C68.8246 17.847 68.7568 18.6159 68.7568 19.5431Z" fill="white"/>
<path d="M89.1332 33.1802L89.1106 39.309L90.5806 42.249L92.0732 45.1664L102.567 44.9855L102.454 44.4653C102.295 43.6285 102.318 40.8468 102.522 40.0553L102.725 39.3316H95.5334L92.6839 33.6099C91.1008 30.489 89.676 27.7073 89.4951 27.4811C89.2237 27.0967 89.1785 27.843 89.1332 33.1802Z" fill="white"/>
<path d="M83.2306 32.0495C82.0546 33.8587 80.3585 36.4142 79.4539 37.7259C78.5493 39.0376 76.8983 41.5027 75.7902 43.1762C73.3025 46.9078 71.3802 49.7121 70.4077 51.0011L69.6614 51.9962L71.0862 52.9461C72.8954 54.1899 76.8983 56.7455 77.034 56.7455C77.1019 56.7455 77.8934 57.243 78.8206 57.8762C79.7479 58.4868 80.6073 59.007 80.743 59.007C80.856 59.007 80.9691 59.0975 80.9691 59.2332C80.9691 59.3462 81.1048 59.4593 81.2857 59.4593C81.4666 59.4593 81.6476 59.5498 81.6928 59.6402C81.7833 59.9116 85.2886 62.241 85.4017 62.1053C85.4469 62.0601 85.4696 54.5292 85.4469 45.3925L85.3791 28.7476L83.2306 32.0495Z" fill="white"/>
<path d="M57.1777 46.7042C56.16 47.247 55.2554 48.5361 55.0971 49.6668C54.9388 50.8655 55.2328 52.1772 55.8208 52.833C56.0243 53.1044 56.5897 53.5115 57.0646 53.7828C58.8286 54.7779 61.2485 54.1221 62.1757 52.4033C62.7411 51.3404 62.8089 49.3502 62.334 48.423C61.9948 47.7672 61.2711 47.0887 60.4569 46.6138C59.7785 46.2519 57.9466 46.2972 57.1777 46.7042Z" fill="white"/>
<path d="M106.268 38.6708C105.25 39.2136 104.346 40.5027 104.187 41.6335C104.029 42.8321 104.323 44.1438 104.911 44.7996C105.115 45.071 105.68 45.4781 106.155 45.7495C107.919 46.7445 110.339 46.0887 111.266 44.3699C111.831 43.307 111.899 41.3168 111.424 40.3896C111.085 39.7338 110.361 39.0553 109.547 38.5804C108.869 38.2185 107.037 38.2638 106.268 38.6708Z" fill="white"/>
<path d="M67.0833 55.5468C66.9928 55.7504 66.9476 57.7632 66.9476 60.0021C66.9702 63.1682 67.0832 78.9085 67.1285 82.0747C67.1285 82.3913 67.0606 90.8268 66.9702 100.845C66.9023 110.864 66.8571 119.119 66.9023 119.209C66.9476 119.367 67.7617 119.119 69.3222 118.485C69.5709 118.395 70.1363 118.191 70.566 118.033C70.9957 117.875 71.5611 117.671 71.8099 117.581C72.0586 117.468 72.4205 117.355 72.6014 117.309C72.8728 117.219 72.918 115.229 72.8502 102.112C72.7823 87.6607 72.8049 87.0048 73.212 86.7108C73.4382 86.5299 73.8453 86.3716 74.1393 86.3716C74.4106 86.3716 74.8177 86.2812 75.0439 86.1681C75.2474 86.055 76.1068 85.6479 76.9436 85.2408C79.9514 83.7935 82.9592 80.3559 84.4066 76.7601C85.1982 74.8152 85.4922 72.825 85.4922 69.591V66.5153L82.9819 64.887C81.6023 64.005 79.4539 62.6707 78.21 61.9244C76.9662 61.1781 74.8856 59.8664 73.5965 58.9844C72.3074 58.125 71.154 57.4239 71.0183 57.4239C70.9052 57.4239 70.7922 57.3108 70.7922 57.1978C70.7922 57.0621 70.6791 56.9716 70.5434 56.9716C70.4077 56.9716 69.7292 56.5645 69.0056 56.067C68.3045 55.5695 67.6034 55.1624 67.4677 55.1624C67.332 55.1624 67.1511 55.3433 67.0833 55.5468Z" fill="white"/>
<path d="M9.61755 58.5321C9.54971 58.6678 9.23309 58.7808 8.93909 58.7808C8.41894 58.7808 6.51925 59.6628 6.38355 59.9568C6.33832 60.0699 6.20263 60.1378 6.06694 60.1378C5.63725 60.1378 2.90078 62.9647 1.92832 64.4573C1.38555 65.2715 0.752323 66.651 0.480938 67.5104C0.0286307 69.003 0.00601538 69.6362 0.00601538 81.0344C-0.0166 87.6155 0.0286308 93.0205 0.0738615 93.0658C0.2774 93.2693 2.94602 92.6135 4.03155 92.0707C4.71002 91.7541 5.84078 90.8947 6.56448 90.1936C7.87617 88.8819 8.71294 87.5928 9.57232 85.5801C10.002 84.5172 10.0472 83.9065 10.1829 76.647C10.296 68.9578 10.3186 68.8221 10.8614 67.7139C11.1554 67.0807 11.6756 66.2892 11.9922 65.9499C12.2862 65.5881 13.3717 64.8191 14.3668 64.2085C15.3619 63.5979 16.4474 62.8516 16.764 62.5802C17.4199 61.9922 19.0934 59.9116 18.9803 59.8438C18.8446 59.7533 17.5782 59.1879 17.0806 58.9844C16.1082 58.5999 15.1583 58.4868 12.5123 58.3964C10.7483 58.3285 9.73063 58.3964 9.61755 58.5321Z" fill="white"/>
<path d="M29.2929 58.5547C29.2251 58.6678 28.818 58.7808 28.3883 58.7808C27.9586 58.7808 27.5516 58.8713 27.4837 59.007C27.4159 59.1201 27.1445 59.2332 26.9183 59.2332C26.2851 59.2332 24.0688 60.4996 22.4857 61.7661C20.4729 63.3718 19.0029 65.4298 18.2114 67.7365C17.3068 70.3147 17.1937 71.7168 17.1937 80.8761V89.7413L16.0629 91.2565C15.4523 92.0707 14.412 93.3598 13.7562 94.1061C13.1003 94.8524 12.1731 95.9832 11.6982 96.639L10.8162 97.7924L10.9066 107.562L10.9745 117.355H16.5831L16.4248 114.189C16.3343 112.447 16.3343 108.942 16.4248 106.409L16.5831 101.795L37.6832 80.5142L37.6606 69.4327V58.3285H33.5446C31.0569 58.3285 29.3834 58.419 29.2929 58.5547Z" fill="white"/>
<path d="M41.2565 58.6904C41.3243 58.8939 41.3922 63.8241 41.3922 69.6588V80.2655H42.048C42.4325 80.2655 42.7943 80.3559 42.8622 80.4916C42.93 80.6047 43.2919 80.7178 43.6537 80.7178C44.0156 80.7178 44.3774 80.8082 44.4452 80.9439C44.5131 81.057 44.8749 81.1701 45.2594 81.1701C45.6212 81.1701 45.9152 81.2605 45.9152 81.3962C45.9152 81.5093 46.2092 81.6224 46.5711 81.6224C46.9556 81.6224 47.2948 81.7128 47.3626 81.8259C47.4305 81.939 47.7245 82.0747 47.9959 82.1425C48.2899 82.1878 50.3479 82.821 52.5868 83.5447C54.8257 84.2458 57.2682 84.9695 58.0145 85.1504C58.7608 85.3313 59.5523 85.5801 59.7559 85.7158C59.982 85.8288 60.4117 85.9193 60.7057 85.9193C61.0223 85.9193 61.3389 86.0098 61.4068 86.1455C61.4746 86.2585 61.7912 86.3716 62.0852 86.3716C62.3792 86.3716 62.6959 86.4621 62.7637 86.5978C62.8316 86.7108 62.9672 86.8239 63.0577 86.8239C63.1482 86.8239 63.216 80.4011 63.2386 72.5762V58.3285H52.1797C42.1837 58.3285 41.1208 58.3738 41.2565 58.6904Z" fill="white"/>
<path d="M88.3643 76.8053C88.3191 76.8958 88.1382 77.3933 88.0025 77.8908C87.8442 78.3884 87.3466 79.5644 86.8943 80.4916C86.2385 81.8033 85.56 82.6853 83.8865 84.3815C82.6653 85.6027 81.5797 86.5978 81.444 86.5978C81.3083 86.5978 81.1953 86.6882 81.1953 86.8239C81.1953 86.9596 84.0222 86.9822 88.9523 86.8918C96.6642 86.7561 96.732 86.7561 96.8451 87.2084C96.9808 87.6833 95.9857 91.8898 95.3525 93.5181C94.9454 94.6262 93.792 98.5387 93.4302 100.077C93.1814 101.094 93.204 101.456 93.6111 102.903C93.8599 103.831 94.1765 105.052 94.3348 105.64C94.5836 106.703 94.5836 106.703 95.0585 106.251C95.3073 106.024 95.6691 105.821 95.8274 105.821C95.9857 105.821 96.1214 105.708 96.1214 105.595C96.1214 105.459 96.2345 105.369 96.3702 105.369C96.8677 105.369 97.9306 104.419 97.9306 103.989C97.9306 103.74 98.0211 103.378 98.1342 103.152C98.2473 102.949 98.5639 101.999 98.8353 101.072C99.1066 100.144 99.4685 98.9684 99.6268 98.4708C99.7851 97.9733 100.102 96.8425 100.305 95.9832C100.69 94.3548 100.916 93.6538 102.341 89.3568C103.11 87.0275 103.177 86.643 103.042 85.2408C102.974 84.3815 102.77 83.2959 102.612 82.821C102.408 82.1425 102.114 81.8259 101.21 81.351C100.577 81.0118 98.9031 80.3559 97.4783 79.9036C96.0536 79.4287 94.7871 78.9764 94.674 78.8633C94.5383 78.7728 94.2217 78.6824 93.9277 78.6824C93.6337 78.6824 93.204 78.5693 92.9553 78.4562C92.7065 78.3205 92.2994 78.117 92.0506 78.0039C91.8019 77.8682 91.44 77.7778 91.2591 77.7778C91.0782 77.7778 90.9199 77.6647 90.9199 77.5516C90.9199 77.4159 90.6937 77.3255 90.3997 77.3255C90.1057 77.3255 89.7891 77.235 89.676 77.1219C89.3368 76.8053 88.4774 76.6018 88.3643 76.8053Z" fill="white"/>
<path d="M38.2939 85.2861C37.2988 86.3264 34.992 88.5879 33.1828 90.3293L29.9036 93.4955L29.7452 95.5987C29.6774 96.7747 29.5643 97.9959 29.4965 98.3125L29.3834 98.9231H32.1651C33.7029 98.9231 35.1729 99.0136 35.4669 99.1041C35.9419 99.285 36.3489 98.9458 39.108 96.1641C43.7442 91.5053 45.2368 89.6961 47.0008 86.5525L47.4531 85.761L46.7294 85.5122C46.3223 85.3539 45.7796 85.2408 45.5082 85.2408C45.2594 85.2408 44.9654 85.1278 44.8976 85.0147C44.8297 84.879 44.4679 84.7885 44.106 84.7885C43.7442 84.7885 43.3823 84.6755 43.3145 84.5624C43.2466 84.4267 42.8848 84.3362 42.5003 84.3362C42.1385 84.3362 41.8445 84.2232 41.8445 84.1101C41.8445 83.9744 41.5505 83.8839 41.2112 83.8839C40.872 83.8839 40.4649 83.7708 40.3519 83.6578C40.1936 83.4995 39.5377 84.0196 38.2939 85.2861Z" fill="white"/>
<path d="M88.1382 102.564C88.0477 102.655 87.5049 102.768 86.9169 102.836C86.3063 102.881 85.8088 102.949 85.7636 102.994C85.7409 103.017 85.7409 105.029 85.7636 107.472L85.8314 111.904L86.8491 111.271C88.0477 110.525 89.9248 109.462 90.6259 109.123C90.9199 108.987 91.146 108.761 91.146 108.648C91.146 108.512 90.9199 107.653 90.6711 106.725C90.2188 105.12 89.8343 103.333 89.8117 102.7C89.7891 102.542 89.4725 102.429 89.0428 102.429C88.6131 102.429 88.206 102.496 88.1382 102.564Z" fill="white"/>
<path d="M30.0619 103.605C30.3106 104.012 30.9891 105.527 31.5545 106.952C32.64 109.643 35.0599 115.319 35.6479 116.608L35.9871 117.355H42.0932L41.7766 116.721C41.5957 116.382 41.3243 115.794 41.166 115.432C41.0077 115.048 40.8042 114.573 40.6911 114.369C40.578 114.143 40.4876 113.872 40.4876 113.736C40.4876 113.623 40.1936 112.854 39.8091 112.04C39.4472 111.226 39.1306 110.502 39.1306 110.457C39.1306 110.389 38.9271 109.914 38.6783 109.371C38.4296 108.851 37.7285 107.2 37.1179 105.708L35.9871 102.994L29.6322 102.858L30.0619 103.605Z" fill="white"/>
<path d="M73.0763 120.996C72.1943 121.358 70.9279 121.9 70.5208 122.127C70.2946 122.24 69.9328 122.33 69.7066 122.33C68.9377 122.33 68.7568 122.805 68.7568 124.75V126.627H72.7371C74.9308 126.627 76.6722 126.559 76.6269 126.446C76.5817 126.356 76.0389 125.27 75.4057 124.004C74.7725 122.76 74.2071 121.516 74.1393 121.245C73.9809 120.702 73.8679 120.679 73.0763 120.996Z" fill="white"/>
<path d="M11.9922 122.601C11.9922 123.506 12.06 124.795 12.1279 125.428L12.2862 126.627H20.0885L19.5683 125.541C19.2743 124.953 18.7089 123.687 18.3245 122.715L17.6008 120.973H11.9922V122.601Z" fill="white"/>
<path d="M37.638 121.471C37.7285 121.765 37.9546 123.031 38.1808 124.298L38.5426 126.627H45.87L44.988 124.524C44.4905 123.393 43.9477 122.104 43.7668 121.697L43.4276 120.973H37.5023L37.638 121.471Z" fill="white"/>
<path d="M169.824 110.722C164.792 110.722 160.372 109.158 156.564 106.03C152.824 102.902 149.9 98.5159 147.792 92.8719C145.752 87.1599 144.732 80.4279 144.732 72.6759C144.732 65.1959 145.854 58.6679 148.098 53.0919C150.41 47.4479 153.47 43.0959 157.278 40.0359C161.154 36.9079 165.438 35.3439 170.13 35.3439C172.918 35.3439 175.366 35.6159 177.474 36.1599C179.582 36.6359 181.452 37.2819 183.084 38.0979C183.9 38.5739 184.308 39.2879 184.308 40.2399L184.614 55.7439C184.614 56.8999 184.206 57.4779 183.39 57.4779C182.642 57.4779 182.166 57.0359 181.962 56.1519L180.942 52.3779C179.514 47.0739 177.848 43.4019 175.944 41.3619C174.108 39.3219 171.898 38.3019 169.314 38.3019C164.554 38.3019 160.576 41.2599 157.38 47.1759C154.252 53.0239 152.688 61.5239 152.688 72.6759C152.688 80.2919 153.47 86.7179 155.034 91.9539C156.666 97.1899 158.74 101.134 161.256 103.786C163.84 106.438 166.56 107.764 169.416 107.764C172.476 107.764 174.924 106.812 176.76 104.908C178.664 103.004 180.262 99.3319 181.554 93.8919L182.778 88.8939C182.982 87.8739 183.526 87.4319 184.41 87.5679C185.158 87.7039 185.532 88.2819 185.532 89.3019L185.124 105.826C185.124 106.778 184.682 107.492 183.798 107.968C182.166 108.784 180.228 109.43 177.984 109.906C175.808 110.45 173.088 110.722 169.824 110.722Z" fill="white"/>
<path d="M195.168 109.804C194.148 109.804 193.638 109.43 193.638 108.682C193.638 108.07 194.08 107.662 194.964 107.458L197.31 107.05C198.738 106.778 199.656 106.404 200.064 105.928C200.54 105.452 200.778 104.5 200.778 103.072V43.0959C200.778 41.6679 200.54 40.7159 200.064 40.2399C199.656 39.7639 198.738 39.3899 197.31 39.1179L194.964 38.7099C194.08 38.5059 193.638 38.0979 193.638 37.4859C193.638 36.7379 194.148 36.3639 195.168 36.3639H229.44C231.004 36.3639 231.854 37.1459 231.99 38.7099L232.806 55.6419C232.942 56.7979 232.5 57.3759 231.48 57.3759C230.664 57.3759 230.188 56.9339 230.052 56.0499L229.44 52.2759C228.692 47.6519 227.162 44.2859 224.85 42.1779C222.538 40.0019 219.342 38.9139 215.262 38.9139C212.542 38.9139 210.638 39.3219 209.55 40.1379C208.53 40.8859 208.02 42.2459 208.02 44.2179V68.7999C208.02 69.7519 208.496 70.2279 209.448 70.2279H214.548C217.54 70.2279 219.376 68.6299 220.056 65.4339L221.076 60.3339C221.348 59.3139 221.926 58.8719 222.81 59.0079C223.558 59.1439 223.932 59.7219 223.932 60.7419V83.6919C223.932 84.7119 223.558 85.2899 222.81 85.4259C221.926 85.5619 221.348 85.1199 221.076 84.0999L220.056 79.1019C219.58 76.7219 218.9 75.1579 218.016 74.4099C217.2 73.6619 216.01 73.2879 214.446 73.2879H209.448C208.496 73.2879 208.02 73.7639 208.02 74.7159V100.318C208.02 102.766 208.632 104.534 209.856 105.622C211.148 106.71 213.46 107.254 216.792 107.254C220.192 107.254 223.082 106.404 225.462 104.704C227.91 102.936 229.61 99.6719 230.562 94.9119L231.786 88.8939C231.99 88.0099 232.5 87.5679 233.316 87.5679C234.268 87.5679 234.676 88.1459 234.54 89.3019L233.52 107.458C233.384 109.022 232.534 109.804 230.97 109.804H195.168Z" fill="white"/>
<path d="M283.717 110.722C282.629 110.722 281.711 109.906 280.963 108.274L253.321 48.2979C253.117 47.8219 252.845 47.6179 252.505 47.6859C252.233 47.7539 252.097 48.0599 252.097 48.6039V101.032C252.097 102.936 252.403 104.398 253.015 105.418C253.695 106.37 254.885 106.982 256.585 107.254L257.911 107.458C258.795 107.526 259.237 107.934 259.237 108.682C259.237 109.43 258.727 109.804 257.707 109.804H243.121C242.101 109.804 241.591 109.43 241.591 108.682C241.591 107.934 242.033 107.526 242.917 107.458L244.243 107.254C246.011 106.982 247.235 106.37 247.915 105.418C248.595 104.398 248.935 102.936 248.935 101.032V43.0959C248.935 41.6679 248.697 40.7159 248.221 40.2399C247.813 39.7639 246.827 39.3899 245.263 39.1179L242.917 38.7099C242.033 38.5059 241.591 38.0979 241.591 37.4859C241.591 36.7379 242.101 36.3639 243.121 36.3639H254.035C255.735 36.3639 256.925 37.1119 257.605 38.6079L281.677 91.5459C281.881 91.9539 282.119 92.1239 282.391 92.0559C282.731 91.9879 282.901 91.7499 282.901 91.3419V45.1359C282.901 42.9599 282.527 41.4639 281.779 40.6479C281.031 39.7639 280.079 39.2199 278.923 39.0159L277.087 38.7099C276.203 38.5059 275.761 38.0979 275.761 37.4859C275.761 36.7379 276.271 36.3639 277.291 36.3639H291.877C292.897 36.3639 293.407 36.7379 293.407 37.4859C293.407 38.2339 292.965 38.6419 292.081 38.7099L290.755 38.9139C288.987 39.1859 287.763 39.7639 287.083 40.6479C286.403 41.4639 286.063 42.9599 286.063 45.1359V107.458C286.063 108.682 285.825 109.532 285.349 110.008C284.941 110.484 284.397 110.722 283.717 110.722Z" fill="white"/>
<path d="M309.119 109.804C308.099 109.804 307.589 109.43 307.589 108.682C307.589 107.934 308.031 107.526 308.915 107.458L313.505 106.744C314.865 106.54 315.783 106.2 316.259 105.724C316.735 105.18 316.973 104.194 316.973 102.766V41.5659C316.973 40.6139 316.769 39.9339 316.361 39.5259C315.953 39.1179 315.103 38.9139 313.811 38.9139C311.295 38.9139 308.813 40.0019 306.365 42.1779C303.917 44.3539 302.319 47.8559 301.571 52.6839L301.061 56.0499C300.925 56.9339 300.449 57.3759 299.633 57.3759C298.613 57.3759 298.171 56.7979 298.307 55.6419L299.225 37.1799C299.361 35.6159 299.973 34.8339 301.061 34.8339C301.537 34.8339 301.979 34.9699 302.387 35.2419C302.795 35.4459 303.475 35.6839 304.427 35.9559C305.447 36.2279 307.045 36.3639 309.221 36.3639H331.967C334.143 36.3639 335.707 36.2279 336.659 35.9559C337.679 35.6839 338.393 35.4459 338.801 35.2419C339.277 34.9699 339.719 34.8339 340.127 34.8339C341.215 34.8339 341.827 35.6159 341.963 37.1799L342.881 55.6419C343.017 56.7979 342.575 57.3759 341.555 57.3759C340.739 57.3759 340.263 56.9339 340.127 56.0499L339.617 52.6839C338.937 47.8559 337.373 44.3539 334.925 42.1779C332.477 40.0019 329.961 38.9139 327.377 38.9139C326.085 38.9139 325.235 39.1179 324.827 39.5259C324.419 39.9339 324.215 40.6139 324.215 41.5659V102.766C324.215 104.194 324.453 105.18 324.929 105.724C325.473 106.2 326.391 106.54 327.683 106.744L332.273 107.458C333.157 107.526 333.599 107.934 333.599 108.682C333.599 109.43 333.089 109.804 332.069 109.804H309.119Z" fill="white"/>
<path d="M341.549 109.804C340.529 109.804 340.019 109.464 340.019 108.784C340.019 108.104 340.495 107.662 341.447 107.458L342.977 107.152C344.337 106.88 345.357 106.234 346.037 105.214C346.717 104.126 347.295 102.63 347.771 100.726L363.581 36.9759C363.717 36.2959 363.921 35.8539 364.193 35.6499C364.533 35.4459 364.839 35.3439 365.111 35.3439C365.451 35.3439 365.757 35.4459 366.029 35.6499C366.369 35.8539 366.607 36.2959 366.743 36.9759L382.859 101.644C383.335 103.548 383.879 104.874 384.491 105.622C385.103 106.37 386.055 106.88 387.347 107.152L388.877 107.458C389.829 107.662 390.305 108.104 390.305 108.784C390.305 109.464 389.795 109.804 388.775 109.804H371.333C370.381 109.804 369.905 109.43 369.905 108.682C369.905 107.934 370.483 107.526 371.639 107.458L373.577 107.254C374.733 107.118 375.447 106.744 375.719 106.132C376.059 105.52 376.059 104.466 375.719 102.97L371.843 87.1599C371.435 85.3919 370.313 84.5079 368.477 84.5079H357.767C355.999 84.5079 354.877 85.3919 354.401 87.1599L350.933 100.828C349.913 104.704 350.933 106.846 353.993 107.254L355.523 107.458C356.679 107.662 357.257 108.07 357.257 108.682C357.257 109.43 356.781 109.804 355.829 109.804H341.549ZM357.461 81.4479H368.681C369.769 81.4479 370.211 80.8699 370.007 79.7139L363.479 52.3779H362.969L356.135 79.7139C355.931 80.8699 356.373 81.4479 357.461 81.4479Z" fill="white"/>
<path d="M414.877 110.722C411.205 110.722 407.941 109.872 405.085 108.172C402.297 106.404 400.121 103.99 398.557 100.93C396.993 97.8019 396.211 94.2319 396.211 90.2199V43.0959C396.211 41.6679 395.973 40.7159 395.497 40.2399C395.089 39.7639 394.171 39.3899 392.743 39.1179L390.397 38.7099C389.513 38.5059 389.071 38.0979 389.071 37.4859C389.071 36.7379 389.581 36.3639 390.601 36.3639H409.267C410.287 36.3639 410.797 36.7719 410.797 37.5879C410.797 38.1999 410.423 38.5739 409.675 38.7099L406.921 39.1179C405.561 39.3219 404.643 39.6959 404.167 40.2399C403.691 40.7839 403.453 41.7699 403.453 43.1979V90.3219C403.453 95.4899 404.609 99.5019 406.921 102.358C409.233 105.214 412.463 106.642 416.611 106.642C420.827 106.642 424.091 105.214 426.403 102.358C428.715 99.5019 429.871 95.4899 429.871 90.3219V45.2379C429.871 41.5659 428.715 39.5259 426.403 39.1179L423.649 38.7099C422.901 38.5739 422.527 38.1999 422.527 37.5879C422.527 36.7719 423.037 36.3639 424.057 36.3639H438.745C439.765 36.3639 440.275 36.7379 440.275 37.4859C440.275 38.0979 439.833 38.5059 438.949 38.7099L436.603 39.1179C434.291 39.5259 433.135 41.5319 433.135 45.1359V90.2199C433.135 96.4079 431.469 101.372 428.137 105.112C424.805 108.852 420.385 110.722 414.877 110.722Z" fill="white"/>
<path d="M489.452 110.722C483.536 110.722 479.762 106.846 478.13 99.0939L475.784 87.7719C475.036 84.0999 474.186 81.3119 473.234 79.4079C472.35 77.5039 471.092 76.2119 469.46 75.5319C467.896 74.8519 465.72 74.5119 462.932 74.5119C461.98 74.5119 461.232 74.7839 460.688 75.3279C460.144 75.8039 459.872 76.4159 459.872 77.1639V102.664C459.872 104.092 460.144 105.078 460.688 105.622C461.232 106.098 462.456 106.506 464.36 106.846L468.134 107.458C468.882 107.594 469.256 107.968 469.256 108.58C469.256 109.396 468.746 109.804 467.726 109.804H447.02C446 109.804 445.49 109.43 445.49 108.682C445.49 108.07 445.932 107.662 446.816 107.458L449.162 107.05C450.59 106.778 451.508 106.404 451.916 105.928C452.392 105.452 452.63 104.5 452.63 103.072V43.0959C452.63 41.6679 452.392 40.7159 451.916 40.2399C451.508 39.7639 450.59 39.3899 449.162 39.1179L446.816 38.7099C445.932 38.5059 445.49 38.0979 445.49 37.4859C445.49 36.7379 446 36.3639 447.02 36.3639H467.726C471.738 36.3639 475.308 37.1459 478.436 38.7099C481.564 40.2739 484.012 42.4499 485.78 45.2379C487.548 47.9579 488.432 51.1199 488.432 54.7239C488.432 59.0079 487.14 62.8839 484.556 66.3519C481.972 69.7519 478.708 72.1659 474.764 73.5939C474.288 73.7299 474.016 73.9679 473.948 74.3079C473.948 74.5799 474.186 74.8179 474.662 75.0219C476.838 76.0419 478.538 77.4699 479.762 79.3059C481.054 81.1419 482.04 83.5899 482.72 86.6499L484.964 97.0539C485.712 100.59 486.596 103.106 487.616 104.602C488.636 106.098 489.928 106.846 491.492 106.846C492.036 106.846 492.512 106.778 492.92 106.642C493.396 106.438 493.974 106.098 494.654 105.622C495.198 105.282 495.708 105.214 496.184 105.418C496.66 105.554 496.898 105.894 496.898 106.438C496.898 107.594 496.15 108.614 494.654 109.498C493.158 110.314 491.424 110.722 489.452 110.722ZM466.706 71.9619C471.33 71.9619 474.832 70.4319 477.212 67.3719C479.592 64.2439 480.782 60.0959 480.782 54.9279C480.782 49.8959 479.388 45.9859 476.6 43.1979C473.88 40.3419 470.106 38.9139 465.278 38.9139C461.674 38.9139 459.872 40.2739 459.872 42.9939V66.3519C459.872 70.0919 462.15 71.9619 466.706 71.9619Z" fill="white"/>
</svg>
