<svg width="275" height="275" viewBox="0 0 275 275" fill="none" xmlns="http://www.w3.org/2000/svg">
<path d="M165.914 22.0051C163.134 23.2951 160.396 26.0832 159.192 28.7881C157.367 32.9494 158.155 39.3995 161.059 43.436C162.761 45.8496 164.877 47.5141 168.611 49.3035C173.465 51.7171 175.083 52.3413 177.739 52.9239C181.224 53.7561 182.261 53.8394 182.593 53.34C182.759 53.0487 183.008 52.0084 183.215 51.0513C183.381 50.0526 183.755 48.388 183.962 47.2645C185.331 40.9392 185.497 31.6594 184.336 29.0794C183.298 26.8323 179.274 22.6293 178.154 22.6293C177.905 22.6293 177.739 22.4212 177.739 22.2132C177.739 21.9635 177.365 21.797 176.95 21.797C176.494 21.797 175.996 21.589 175.872 21.3809C175.747 21.1312 173.921 20.9648 171.805 21.0064C168.694 21.0064 167.615 21.2144 165.914 22.0051Z" fill="black"/>
<path d="M161.142 56.9604V60.0814H142.389L139.65 62.9111C131.145 71.5251 113.221 90.1263 113.138 90.376C113.055 90.5424 116.582 94.2044 120.938 98.5738C125.295 102.902 129.236 106.938 129.651 107.479L130.439 108.478L131.103 106.896C131.892 104.982 135.584 101.279 136.704 101.279C137.119 101.279 137.493 101.154 137.493 101.029C137.493 100.863 136.995 100.238 136.373 99.6558C135.709 99.0316 134.008 97.159 132.514 95.4944C131.02 93.7883 129.568 92.1653 129.319 91.874C129.029 91.5828 128.78 91.1666 128.78 91.0002C128.78 90.5424 132.431 86.9637 138.945 81.0545C141.683 78.5577 144.38 76.0193 144.92 75.3951C145.459 74.7293 146.206 74.2299 146.579 74.2299C147.409 74.2299 148.28 75.0206 148.28 75.7696C148.28 76.0609 148.612 77.1013 149.069 78.1C149.484 79.0571 150.272 80.9713 150.811 82.3446C151.309 83.7178 152.139 85.7569 152.678 86.922C155.375 93.0808 156.661 96.2018 158.653 101.279C159.856 104.358 160.935 106.98 161.059 107.105C161.184 107.229 161.308 107.105 161.433 106.855C161.516 106.605 163.756 103.193 166.453 99.2812C169.109 95.328 172.635 90.1263 174.212 87.7127C175.83 85.2575 177.407 82.9272 177.78 82.511C178.154 82.0949 179.979 79.3484 181.888 76.4355C183.796 73.5225 186.618 69.1947 188.153 66.906L190.974 62.703L189.231 62.4117C187.074 62.0372 182.095 61.413 178.776 61.0801C177.407 60.9553 176.12 60.664 175.872 60.4559C175.664 60.2478 174.419 60.0814 173.092 60.0814C170.81 60.0814 169.523 59.6652 168.32 58.5417C167.988 58.2504 167.2 57.7094 166.536 57.2933C165.831 56.9188 165.291 56.4194 165.291 56.2529C165.291 56.0865 165.001 55.92 164.669 55.92C164.337 55.92 164.047 55.7536 164.047 55.5871C164.047 55.2542 161.889 53.8394 161.391 53.8394C161.267 53.8394 161.142 55.2542 161.142 56.9604Z" fill="black"/>
<path d="M198.525 82.0533L198.484 93.3305L201.181 98.7403L203.919 104.108L223.171 103.775L222.963 102.818C222.673 101.279 222.714 96.1602 223.088 94.7038L223.461 93.3721H210.267L205.039 82.8439C202.135 77.1013 199.521 71.9828 199.189 71.5667C198.691 70.8593 198.608 72.2325 198.525 82.0533Z" fill="black"/>
<path d="M187.696 79.9726C185.539 83.3017 182.427 88.004 180.767 90.4176C179.108 92.8312 176.079 97.367 174.046 100.446C169.482 107.313 165.955 112.473 164.171 114.845L162.802 116.676L165.416 118.423C168.735 120.712 176.079 125.414 176.328 125.414C176.452 125.414 177.905 126.33 179.606 127.495C181.307 128.619 182.883 129.576 183.132 129.576C183.34 129.576 183.547 129.742 183.547 129.992C183.547 130.2 183.796 130.408 184.128 130.408C184.46 130.408 184.792 130.575 184.875 130.741C185.041 131.24 191.472 135.527 191.679 135.277C191.762 135.194 191.804 121.336 191.762 104.525L191.638 73.897L187.696 79.9726Z" fill="black"/>
<path d="M139.899 106.938C138.032 107.937 136.372 110.309 136.082 112.389C135.792 114.595 136.331 117.009 137.41 118.215C137.783 118.715 138.82 119.464 139.692 119.963C142.928 121.794 147.367 120.587 149.069 117.425C150.106 115.469 150.23 111.807 149.359 110.101C148.737 108.894 147.409 107.646 145.915 106.772C144.671 106.106 141.31 106.189 139.899 106.938Z" fill="black"/>
<path d="M229.961 92.1563C228.094 93.155 226.435 95.527 226.144 97.6076C225.854 99.8131 226.393 102.227 227.472 103.434C227.845 103.933 228.882 104.682 229.754 105.181C232.99 107.012 237.43 105.805 239.131 102.643C240.168 100.687 240.292 97.025 239.421 95.3189C238.799 94.1121 237.471 92.8637 235.977 91.9898C234.733 91.324 231.372 91.4072 229.961 92.1563Z" fill="black"/>
<path d="M158.072 123.209C157.906 123.583 157.823 127.287 157.823 131.407C157.865 137.233 158.072 166.196 158.155 172.022C158.155 172.604 158.031 188.126 157.865 206.561C157.74 224.995 157.657 240.184 157.74 240.351C157.823 240.642 159.317 240.184 162.18 239.019C162.636 238.853 163.673 238.478 164.462 238.187C165.25 237.896 166.287 237.521 166.744 237.355C167.2 237.147 167.864 236.938 168.196 236.855C168.694 236.689 168.777 233.027 168.652 208.891C168.528 182.3 168.569 181.093 169.316 180.552C169.731 180.219 170.478 179.928 171.017 179.928C171.515 179.928 172.262 179.762 172.677 179.554C173.05 179.346 174.627 178.596 176.162 177.847C181.68 175.184 187.198 168.859 189.854 162.242C191.306 158.664 191.845 155.002 191.845 149.051V143.391L187.24 140.395C184.709 138.772 180.767 136.317 178.485 134.944C176.203 133.571 172.386 131.157 170.021 129.534C167.656 127.953 165.54 126.663 165.291 126.663C165.084 126.663 164.877 126.455 164.877 126.247C164.877 125.997 164.669 125.831 164.42 125.831C164.171 125.831 162.926 125.082 161.599 124.166C160.313 123.251 159.026 122.502 158.777 122.502C158.528 122.502 158.197 122.834 158.072 123.209Z" fill="black"/>
<path d="M52.6445 128.702C52.5201 128.952 51.9392 129.16 51.3998 129.16C50.4455 129.16 46.9603 130.783 46.7114 131.324C46.6284 131.532 46.3795 131.656 46.1305 131.656C45.3422 131.656 40.3218 136.858 38.5377 139.605C37.542 141.103 36.3802 143.641 35.8823 145.222C35.0525 147.969 35.011 149.134 35.011 170.107C34.9695 182.217 35.0525 192.162 35.1355 192.246C35.5089 192.62 40.4048 191.413 42.3964 190.415C43.6411 189.832 45.7156 188.251 47.0433 186.961C49.4498 184.547 50.9849 182.175 52.5615 178.472C53.3499 176.516 53.4329 175.392 53.6818 162.034C53.8892 147.886 53.9307 147.636 54.9265 145.597C55.4659 144.432 56.4202 142.975 57.001 142.351C57.5404 141.685 59.532 140.27 61.3576 139.147C63.1831 138.023 65.1747 136.65 65.7556 136.151C66.9588 135.069 70.0291 131.24 69.8216 131.116C69.5727 130.949 67.2492 129.909 66.3364 129.534C64.5523 128.827 62.8097 128.619 57.9553 128.452C54.7191 128.327 52.852 128.452 52.6445 128.702Z" fill="black"/>
<path d="M88.7413 128.744C88.6169 128.952 87.87 129.16 87.0817 129.16C86.2934 129.16 85.5466 129.326 85.4221 129.576C85.2976 129.784 84.7997 129.992 84.3848 129.992C83.2231 129.992 79.157 132.322 76.2527 134.653C72.56 137.607 69.8631 141.394 68.411 145.639C66.7513 150.383 66.5439 152.963 66.5439 169.816V186.128L64.4693 188.917C63.3491 190.415 61.4405 192.787 60.2373 194.16C59.0341 195.533 57.333 197.614 56.4617 198.821L54.8435 200.943L55.0095 218.92L55.134 236.938H65.4236L65.1332 231.113C64.9672 227.908 64.9672 221.458 65.1332 216.798L65.4236 208.308L104.134 169.15L104.093 148.76V128.327H96.5416C91.9776 128.327 88.9073 128.494 88.7413 128.744Z" fill="black"/>
<path d="M110.69 128.993C110.814 129.368 110.939 138.439 110.939 149.176V168.692H112.142C112.847 168.692 113.511 168.859 113.636 169.109C113.76 169.317 114.424 169.525 115.088 169.525C115.752 169.525 116.416 169.691 116.54 169.941C116.664 170.149 117.328 170.357 118.034 170.357C118.698 170.357 119.237 170.523 119.237 170.773C119.237 170.981 119.776 171.189 120.44 171.189C121.145 171.189 121.768 171.356 121.892 171.564C122.017 171.772 122.556 172.022 123.054 172.146C123.593 172.23 127.369 173.395 131.477 174.726C135.584 176.016 140.065 177.348 141.434 177.681C142.804 178.014 144.256 178.472 144.629 178.721C145.044 178.929 145.832 179.096 146.372 179.096C146.953 179.096 147.533 179.262 147.658 179.512C147.782 179.72 148.363 179.928 148.903 179.928C149.442 179.928 150.023 180.095 150.147 180.344C150.272 180.552 150.521 180.76 150.687 180.76C150.853 180.76 150.977 168.942 151.019 154.544V128.327H130.73C112.391 128.327 110.441 128.411 110.69 128.993Z" fill="black"/>
<path d="M197.115 162.326C197.032 162.492 196.7 163.408 196.451 164.323C196.16 165.239 195.248 167.402 194.418 169.109C193.215 171.522 191.97 173.145 188.9 176.266C186.659 178.513 184.668 180.344 184.419 180.344C184.17 180.344 183.962 180.511 183.962 180.76C183.962 181.01 189.149 181.052 198.193 180.885C212.342 180.636 212.466 180.636 212.674 181.468C212.923 182.342 211.097 190.082 209.935 193.078C209.188 195.117 207.072 202.316 206.409 205.146C205.952 207.018 205.994 207.684 206.741 210.348C207.197 212.054 207.778 214.301 208.068 215.383C208.525 217.339 208.525 217.339 209.396 216.506C209.852 216.09 210.516 215.716 210.807 215.716C211.097 215.716 211.346 215.508 211.346 215.3C211.346 215.05 211.553 214.883 211.802 214.883C212.715 214.883 214.665 213.136 214.665 212.345C214.665 211.887 214.831 211.221 215.039 210.805C215.246 210.431 215.827 208.683 216.325 206.977C216.823 205.271 217.487 203.107 217.777 202.191C218.067 201.276 218.648 199.195 219.022 197.614C219.727 194.618 220.142 193.328 222.756 185.421C224.167 181.135 224.291 180.427 224.042 177.847C223.918 176.266 223.544 174.269 223.254 173.395C222.88 172.146 222.341 171.564 220.681 170.69C219.52 170.066 216.449 168.859 213.835 168.027C211.222 167.153 208.898 166.32 208.691 166.112C208.442 165.946 207.861 165.78 207.321 165.78C206.782 165.78 205.994 165.571 205.537 165.363C205.081 165.114 204.334 164.739 203.878 164.531C203.421 164.281 202.757 164.115 202.426 164.115C202.094 164.115 201.803 163.907 201.803 163.699C201.803 163.449 201.388 163.283 200.849 163.283C200.309 163.283 199.729 163.116 199.521 162.908C198.899 162.326 197.322 161.951 197.115 162.326Z" fill="black"/>
<path d="M105.255 177.931C103.429 179.845 99.1969 184.006 95.8777 187.21L89.8616 193.036L89.5711 196.906C89.4467 199.07 89.2392 201.317 89.1147 201.9L88.9073 203.024H94.0106C96.832 203.024 99.5289 203.19 100.068 203.356C100.94 203.689 101.686 203.065 106.748 197.947C115.254 189.374 117.992 186.045 121.228 180.261L122.058 178.805L120.731 178.347C119.984 178.055 118.988 177.847 118.49 177.847C118.034 177.847 117.494 177.639 117.37 177.431C117.245 177.182 116.582 177.015 115.918 177.015C115.254 177.015 114.59 176.807 114.465 176.599C114.341 176.349 113.677 176.183 112.972 176.183C112.308 176.183 111.769 175.975 111.769 175.767C111.769 175.517 111.229 175.351 110.607 175.351C109.984 175.351 109.238 175.143 109.03 174.934C108.74 174.643 107.537 175.6 105.255 177.931Z" fill="black"/>
<path d="M196.7 209.723C196.534 209.89 195.538 210.098 194.459 210.223C193.339 210.306 192.426 210.431 192.343 210.514C192.302 210.556 192.302 214.259 192.343 218.753L192.468 226.91L194.335 225.744C196.534 224.371 199.978 222.415 201.264 221.791C201.803 221.542 202.218 221.125 202.218 220.917C202.218 220.668 201.803 219.086 201.347 217.38C200.517 214.426 199.812 211.138 199.77 209.973C199.729 209.682 199.148 209.474 198.359 209.474C197.571 209.474 196.824 209.598 196.7 209.723Z" fill="black"/>
<path d="M90.152 211.638C90.6084 212.387 91.8531 215.175 92.8904 217.796C94.8819 222.748 99.3214 233.193 100.4 235.565L101.023 236.938H112.225L111.644 235.773C111.312 235.149 110.814 234.067 110.524 233.401C110.233 232.694 109.86 231.82 109.653 231.446C109.445 231.029 109.279 230.53 109.279 230.28C109.279 230.072 108.74 228.657 108.034 227.159C107.371 225.661 106.79 224.33 106.79 224.246C106.79 224.122 106.416 223.248 105.96 222.249C105.504 221.292 104.217 218.254 103.097 215.508L101.023 210.514L89.3637 210.264L90.152 211.638Z" fill="black"/>
<path d="M169.067 243.638C167.449 244.304 165.125 245.303 164.379 245.719C163.964 245.927 163.3 246.093 162.885 246.093C161.474 246.093 161.142 246.967 161.142 250.546V254H168.445C172.469 254 175.664 253.875 175.581 253.667C175.498 253.501 174.502 251.503 173.341 249.173C172.179 246.884 171.142 244.595 171.017 244.096C170.727 243.097 170.519 243.056 169.067 243.638Z" fill="black"/>
<path d="M57.001 246.593C57.001 248.257 57.1255 250.629 57.25 251.794L57.5404 254H71.8547L70.9004 252.003C70.361 250.921 69.3237 248.59 68.6184 246.801L67.2907 243.597H57.001V246.593Z" fill="black"/>
<path d="M104.051 244.512C104.217 245.053 104.632 247.383 105.047 249.714L105.711 254H119.154L117.536 250.13C116.623 248.049 115.627 245.677 115.295 244.928L114.673 243.597H103.802L104.051 244.512Z" fill="black"/>
</svg>
