<svg width="1200" height="657" viewBox="0 0 1200 657" fill="none" xmlns="http://www.w3.org/2000/svg">
<g id="og-image">
<g id="Group 2147253954">
<g id="Twitter post - 5" clip-path="url(#clip0_1160_56)">
<rect width="1200" height="657" fill="#101010"/>
<g id="Frame 2147253820">
<g id="Open Source Pixel Icon GitHub 1" opacity="0.3">
<path id="Vector" d="M436.542 560.125V568.875H435.083V571.792H433.625V574.708H432.167V576.167H430.708V577.625H429.25V579.083H426.333V580.542H424.875V573.25H423.417V571.792H424.875V570.333H427.792V568.875H429.25V567.417H430.708V560.125H429.25V555.75H426.333V557.208H424.875V558.667H423.417V557.208H417.583V558.667H416.125V557.208H414.667V555.75H411.75V560.125H410.292V567.417H411.75V568.875H413.208V570.333H416.125V573.25H413.208V571.792H411.75V570.333H408.833V571.792H410.292V574.708H411.75V576.167H416.125V580.542H414.667V579.083H411.75V577.625H410.292V576.167H408.833V574.708H407.375V571.792H405.917V568.875H404.458V560.125H405.917V557.208H407.375V554.292H408.833V552.833H410.292V551.375H413.208V549.917H416.125V548.458H424.875V549.917H427.792V551.375H430.708V552.833H432.167V554.292H433.625V557.208H435.083V560.125H436.542Z" fill="white"/>
</g>
<g id="PARADIGMXYZ/CENTAUR" opacity="0.8">
<text fill="white" style="white-space: pre" xml:space="preserve" font-family="Geist Mono" font-size="30" font-weight="100" letter-spacing="0.01em"><tspan x="669.459" y="575.18">CENTAUR</tspan></text>
<text fill="white" fill-opacity="0.6" style="white-space: pre" xml:space="preserve" font-family="Geist Mono" font-size="30" font-weight="100" letter-spacing="0.01em"><tspan x="450" y="575.18">PARADIGMXYZ/</tspan></text>
</g>
</g>
<g id="Frame 2147253833">
<g id="Vector_2">
<path d="M348.54 213.794C346.341 214.812 344.176 217.014 343.224 219.15C341.78 222.436 342.404 227.53 344.701 230.718C346.046 232.624 347.72 233.938 350.673 235.351C354.512 237.257 355.792 237.75 357.892 238.21C360.649 238.868 361.469 238.933 361.731 238.539C361.863 238.309 362.06 237.487 362.224 236.731C362.355 235.943 362.65 234.628 362.814 233.741C363.897 228.746 364.029 221.418 363.11 219.38C362.289 217.606 359.106 214.287 358.22 214.287C358.023 214.287 357.892 214.122 357.892 213.958C357.892 213.761 357.597 213.629 357.269 213.629C356.908 213.629 356.514 213.465 356.415 213.301C356.317 213.104 354.873 212.972 353.2 213.005C350.739 213.005 349.885 213.169 348.54 213.794Z" fill="white"/>
<path d="M344.766 241.398V243.863H329.934L327.768 246.097C321.041 252.9 306.865 267.589 306.799 267.786C306.734 267.918 309.523 270.809 312.968 274.26C316.414 277.678 319.531 280.865 319.86 281.292L320.483 282.081L321.008 280.832C321.632 279.321 324.552 276.396 325.438 276.396C325.766 276.396 326.062 276.297 326.062 276.199C326.062 276.067 325.668 275.574 325.176 275.114C324.651 274.621 323.305 273.143 322.124 271.828C320.943 270.481 319.794 269.199 319.597 268.969C319.367 268.739 319.171 268.411 319.171 268.279C319.171 267.918 322.058 265.091 327.21 260.425C329.376 258.453 331.509 256.449 331.936 255.956C332.362 255.43 332.953 255.036 333.248 255.036C333.904 255.036 334.594 255.66 334.594 256.252C334.594 256.482 334.856 257.303 335.217 258.092C335.545 258.848 336.169 260.359 336.595 261.444C336.989 262.528 337.645 264.138 338.072 265.059C340.205 269.922 341.222 272.387 342.797 276.396C343.749 278.828 344.602 280.898 344.701 280.997C344.799 281.095 344.897 280.997 344.996 280.8C345.062 280.602 346.834 277.908 348.966 274.819C351.067 271.697 353.856 267.589 355.103 265.683C356.383 263.744 357.63 261.904 357.925 261.575C358.22 261.247 359.664 259.078 361.174 256.777C362.683 254.477 364.915 251.059 366.129 249.252L368.36 245.933L366.982 245.703C365.275 245.407 361.338 244.914 358.713 244.651C357.63 244.553 356.612 244.323 356.415 244.158C356.251 243.994 355.267 243.863 354.217 243.863C352.412 243.863 351.395 243.534 350.443 242.647C350.181 242.417 349.557 241.989 349.032 241.661C348.474 241.365 348.048 240.971 348.048 240.839C348.048 240.708 347.818 240.576 347.555 240.576C347.293 240.576 347.063 240.445 347.063 240.313C347.063 240.051 345.357 238.933 344.963 238.933C344.865 238.933 344.766 240.051 344.766 241.398Z" fill="white"/>
<path d="M374.332 261.214L374.3 270.119L376.433 274.391L378.598 278.631L393.825 278.368L393.66 277.612C393.431 276.396 393.464 272.354 393.759 271.204L394.054 270.152H383.619L379.484 261.838C377.187 257.303 375.12 253.261 374.857 252.932C374.464 252.374 374.398 253.458 374.332 261.214Z" fill="white"/>
<path d="M365.768 259.571C364.061 262.2 361.6 265.913 360.288 267.819C358.975 269.725 356.58 273.307 354.972 275.739C351.362 281.161 348.573 285.236 347.162 287.109L346.079 288.555L348.146 289.935C350.771 291.743 356.58 295.456 356.776 295.456C356.875 295.456 358.023 296.179 359.369 297.099C360.714 297.986 361.961 298.742 362.158 298.742C362.322 298.742 362.486 298.874 362.486 299.071C362.486 299.235 362.683 299.4 362.946 299.4C363.208 299.4 363.471 299.531 363.536 299.662C363.668 300.057 368.754 303.442 368.918 303.244C368.984 303.179 369.016 292.236 368.984 278.959L368.885 254.773L365.768 259.571Z" fill="white"/>
<path d="M327.965 280.865C326.488 281.654 325.176 283.527 324.946 285.17C324.716 286.912 325.143 288.818 325.996 289.771C326.291 290.165 327.112 290.757 327.801 291.151C330.36 292.597 333.872 291.644 335.217 289.147C336.037 287.602 336.136 284.71 335.447 283.363C334.954 282.41 333.904 281.424 332.723 280.734C331.739 280.208 329.081 280.274 327.965 280.865Z" fill="white"/>
<path d="M399.195 269.192C397.718 269.981 396.406 271.854 396.176 273.497C395.946 275.239 396.373 277.145 397.226 278.098C397.522 278.492 398.342 279.084 399.031 279.478C401.591 280.924 405.102 279.971 406.447 277.473C407.268 275.929 407.366 273.037 406.677 271.69C406.185 270.737 405.135 269.751 403.953 269.061C402.969 268.535 400.311 268.601 399.195 269.192Z" fill="white"/>
<path d="M342.338 293.714C342.207 294.01 342.141 296.935 342.141 300.188C342.174 304.789 342.338 327.661 342.403 332.262C342.403 332.722 342.305 344.979 342.174 359.537C342.075 374.095 342.01 386.09 342.075 386.221C342.141 386.451 343.322 386.09 345.587 385.17C345.948 385.038 346.768 384.742 347.391 384.512C348.015 384.282 348.835 383.987 349.196 383.855C349.557 383.691 350.082 383.527 350.345 383.461C350.738 383.329 350.804 380.437 350.706 361.377C350.607 340.379 350.64 339.426 351.231 338.998C351.559 338.735 352.15 338.505 352.576 338.505C352.97 338.505 353.561 338.374 353.889 338.21C354.184 338.045 355.431 337.454 356.645 336.862C361.01 334.759 365.374 329.764 367.474 324.539C368.623 321.713 369.049 318.821 369.049 314.122V309.652L365.407 307.286C363.405 306.005 360.288 304.066 358.483 302.981C356.678 301.897 353.659 299.991 351.789 298.709C349.918 297.461 348.245 296.442 348.048 296.442C347.884 296.442 347.72 296.278 347.72 296.113C347.72 295.916 347.555 295.785 347.359 295.785C347.162 295.785 346.177 295.193 345.127 294.47C344.11 293.747 343.093 293.156 342.896 293.156C342.699 293.156 342.436 293.419 342.338 293.714Z" fill="white"/>
<path d="M258.955 298.052C258.857 298.249 258.397 298.414 257.971 298.414C257.216 298.414 254.459 299.695 254.263 300.122C254.197 300.287 254 300.385 253.803 300.385C253.18 300.385 249.209 304.493 247.798 306.662C247.01 307.845 246.092 309.85 245.698 311.098C245.042 313.267 245.009 314.187 245.009 330.75C244.976 340.313 245.042 348.167 245.107 348.233C245.403 348.528 249.275 347.575 250.85 346.787C251.834 346.327 253.475 345.078 254.525 344.059C256.428 342.153 257.642 340.28 258.889 337.355C259.513 335.811 259.579 334.923 259.775 324.375C259.94 313.202 259.972 313.004 260.76 311.394C261.186 310.474 261.941 309.324 262.401 308.831C262.827 308.305 264.402 307.188 265.846 306.301C267.29 305.413 268.865 304.329 269.325 303.934C270.276 303.08 272.705 300.057 272.54 299.958C272.344 299.827 270.506 299.005 269.784 298.709C268.373 298.151 266.995 297.986 263.155 297.855C260.596 297.756 259.119 297.855 258.955 298.052Z" fill="white"/>
<path d="M287.504 298.085C287.406 298.249 286.815 298.414 286.191 298.414C285.568 298.414 284.977 298.545 284.879 298.742C284.78 298.907 284.387 299.071 284.059 299.071C283.14 299.071 279.924 300.911 277.627 302.751C274.706 305.085 272.573 308.075 271.425 311.427C270.112 315.173 269.948 317.211 269.948 330.52V343.402L268.307 345.604C267.421 346.787 265.912 348.66 264.96 349.744C264.009 350.829 262.663 352.472 261.974 353.425L260.694 355.101L260.826 369.297L260.924 383.527H269.062L268.832 378.926C268.701 376.395 268.701 371.302 268.832 367.621L269.062 360.917L299.678 329.994L299.646 313.892V297.756H293.673C290.064 297.756 287.635 297.888 287.504 298.085Z" fill="white"/>
<path d="M304.863 298.282C304.962 298.578 305.06 305.742 305.06 314.22V329.633H306.012C306.57 329.633 307.095 329.764 307.193 329.961C307.291 330.126 307.817 330.29 308.342 330.29C308.867 330.29 309.392 330.421 309.49 330.619C309.589 330.783 310.114 330.947 310.671 330.947C311.196 330.947 311.623 331.079 311.623 331.276C311.623 331.44 312.05 331.604 312.575 331.604C313.133 331.604 313.625 331.736 313.723 331.9C313.822 332.064 314.248 332.262 314.642 332.36C315.069 332.426 318.055 333.346 321.303 334.398C324.552 335.416 328.096 336.468 329.179 336.731C330.262 336.994 331.41 337.355 331.706 337.552C332.034 337.717 332.657 337.848 333.084 337.848C333.543 337.848 334.003 337.98 334.101 338.177C334.2 338.341 334.659 338.505 335.086 338.505C335.512 338.505 335.972 338.637 336.07 338.834C336.169 338.998 336.366 339.163 336.497 339.163C336.628 339.163 336.727 329.83 336.759 318.46V297.756H320.713C306.209 297.756 304.666 297.822 304.863 298.282Z" fill="white"/>
<path d="M373.217 324.605C373.151 324.736 372.889 325.459 372.692 326.182C372.462 326.905 371.74 328.614 371.084 329.961C370.132 331.867 369.148 333.149 366.719 335.614C364.947 337.388 363.372 338.834 363.175 338.834C362.978 338.834 362.814 338.966 362.814 339.163C362.814 339.36 366.916 339.393 374.07 339.261C385.26 339.064 385.358 339.064 385.522 339.721C385.719 340.411 384.275 346.524 383.357 348.89C382.766 350.5 381.092 356.185 380.567 358.42C380.206 359.899 380.239 360.424 380.83 362.528C381.191 363.875 381.65 365.65 381.88 366.504C382.241 368.048 382.241 368.048 382.93 367.391C383.291 367.063 383.816 366.767 384.046 366.767C384.275 366.767 384.472 366.603 384.472 366.438C384.472 366.241 384.636 366.11 384.833 366.11C385.555 366.11 387.097 364.729 387.097 364.105C387.097 363.744 387.229 363.218 387.393 362.889C387.557 362.593 388.016 361.213 388.41 359.866C388.804 358.518 389.329 356.81 389.559 356.087C389.788 355.364 390.248 353.721 390.543 352.472C391.101 350.106 391.429 349.087 393.496 342.843C394.612 339.458 394.711 338.9 394.514 336.862C394.415 335.614 394.12 334.036 393.89 333.346C393.595 332.36 393.168 331.9 391.856 331.21C390.937 330.717 388.509 329.764 386.441 329.107C384.374 328.417 382.536 327.76 382.372 327.595C382.175 327.464 381.716 327.332 381.289 327.332C380.863 327.332 380.239 327.168 379.878 327.004C379.517 326.807 378.927 326.511 378.566 326.346C378.205 326.149 377.68 326.018 377.417 326.018C377.155 326.018 376.925 325.854 376.925 325.689C376.925 325.492 376.597 325.361 376.17 325.361C375.743 325.361 375.284 325.229 375.12 325.065C374.628 324.605 373.381 324.309 373.217 324.605Z" fill="white"/>
<path d="M300.564 336.928C299.121 338.44 295.773 341.726 293.148 344.256L288.39 348.857L288.16 351.913C288.062 353.622 287.898 355.397 287.799 355.857L287.635 356.744H291.672C293.903 356.744 296.036 356.875 296.463 357.007C297.152 357.27 297.742 356.777 301.746 352.735C308.473 345.965 310.639 343.336 313.198 338.768L313.854 337.618L312.804 337.257C312.214 337.027 311.426 336.862 311.032 336.862C310.671 336.862 310.245 336.698 310.146 336.534C310.048 336.337 309.523 336.205 308.998 336.205C308.473 336.205 307.948 336.041 307.849 335.876C307.751 335.679 307.226 335.548 306.668 335.548C306.143 335.548 305.716 335.384 305.716 335.219C305.716 335.022 305.29 334.891 304.798 334.891C304.305 334.891 303.715 334.726 303.551 334.562C303.321 334.332 302.369 335.088 300.564 336.928Z" fill="white"/>
<path d="M372.889 362.035C372.757 362.166 371.97 362.33 371.117 362.429C370.231 362.495 369.509 362.593 369.443 362.659C369.41 362.692 369.41 365.617 369.443 369.166L369.541 375.607L371.018 374.687C372.757 373.602 375.481 372.058 376.498 371.565C376.925 371.368 377.253 371.039 377.253 370.875C377.253 370.677 376.925 369.429 376.564 368.081C375.908 365.748 375.35 363.152 375.317 362.232C375.284 362.002 374.825 361.838 374.201 361.838C373.578 361.838 372.987 361.936 372.889 362.035Z" fill="white"/>
<path d="M288.62 363.546C288.981 364.138 289.965 366.34 290.786 368.41C292.361 372.321 295.872 380.569 296.725 382.442L297.217 383.527H306.077L305.618 382.606C305.355 382.113 304.962 381.259 304.732 380.733C304.502 380.175 304.207 379.484 304.043 379.189C303.879 378.86 303.747 378.466 303.747 378.269C303.747 378.104 303.321 376.987 302.763 375.804C302.238 374.621 301.779 373.569 301.779 373.504C301.779 373.405 301.483 372.715 301.122 371.926C300.761 371.17 299.744 368.771 298.858 366.603L297.217 362.659L287.996 362.462L288.62 363.546Z" fill="white"/>
<path d="M351.034 388.817C349.754 389.343 347.916 390.132 347.326 390.46C346.998 390.625 346.473 390.756 346.144 390.756C345.029 390.756 344.766 391.446 344.766 394.272V397H350.542C353.725 397 356.251 396.901 356.186 396.737C356.12 396.606 355.333 395.028 354.414 393.188C353.495 391.381 352.675 389.573 352.576 389.179C352.346 388.39 352.182 388.357 351.034 388.817Z" fill="white"/>
<path d="M262.401 391.151C262.401 392.465 262.499 394.338 262.598 395.258L262.827 397H274.148L273.394 395.423C272.967 394.568 272.147 392.728 271.589 391.315L270.539 388.784H262.401V391.151Z" fill="white"/>
<path d="M299.613 389.507C299.744 389.935 300.072 391.775 300.4 393.615L300.925 397H311.557L310.278 393.944C309.556 392.301 308.768 390.428 308.506 389.836L308.013 388.784H299.416L299.613 389.507Z" fill="white"/>
</g>
<g id="Vector_3">
<path d="M481.414 373.889C474.113 373.889 467.7 371.616 462.174 367.071C456.747 362.525 452.505 356.152 449.446 347.951C446.486 339.651 445.006 329.869 445.006 318.604C445.006 307.735 446.634 298.25 449.89 290.147C453.245 281.946 457.685 275.622 463.21 271.176C468.834 266.63 475.05 264.358 481.858 264.358C485.904 264.358 489.456 264.753 492.515 265.543C495.573 266.235 498.287 267.174 500.655 268.36C501.839 269.051 502.431 270.089 502.431 271.472L502.875 294.001C502.875 295.681 502.283 296.52 501.099 296.52C500.013 296.52 499.323 295.878 499.027 294.594L497.547 289.11C495.475 281.402 493.057 276.067 490.295 273.102C487.63 270.138 484.424 268.656 480.674 268.656C473.768 268.656 467.996 272.954 463.358 281.551C458.819 290.048 456.55 302.4 456.55 318.604C456.55 329.671 457.685 339.009 459.954 346.617C462.322 354.225 465.331 359.956 468.982 363.81C472.732 367.664 476.678 369.59 480.822 369.59C485.262 369.59 488.814 368.207 491.479 365.44C494.241 362.674 496.56 357.338 498.435 349.433L500.211 342.171C500.507 340.688 501.296 340.046 502.579 340.244C503.664 340.441 504.207 341.281 504.207 342.763L503.615 366.774C503.615 368.158 502.973 369.195 501.691 369.887C499.323 371.072 496.511 372.011 493.255 372.703C490.097 373.493 486.15 373.889 481.414 373.889Z" fill="white"/>
<path d="M518.188 372.555C516.708 372.555 515.968 372.011 515.968 370.924C515.968 370.035 516.61 369.442 517.892 369.146L521.296 368.553C523.368 368.158 524.7 367.614 525.292 366.922C525.983 366.231 526.328 364.847 526.328 362.772V275.622C526.328 273.547 525.983 272.164 525.292 271.472C524.7 270.78 523.368 270.237 521.296 269.842L517.892 269.249C516.61 268.952 515.968 268.36 515.968 267.47C515.968 266.383 516.708 265.84 518.188 265.84H567.917C570.186 265.84 571.42 266.976 571.617 269.249L572.801 293.853C572.998 295.532 572.357 296.372 570.877 296.372C569.693 296.372 569.002 295.73 568.805 294.445L567.917 288.961C566.832 282.242 564.612 277.351 561.257 274.288C557.902 271.126 553.265 269.545 547.345 269.545C543.398 269.545 540.635 270.138 539.057 271.324C537.577 272.411 536.837 274.387 536.837 277.252V312.972C536.837 314.356 537.527 315.047 538.909 315.047H546.309C550.65 315.047 553.314 312.725 554.301 308.081L555.781 300.67C556.176 299.188 557.014 298.546 558.297 298.744C559.382 298.941 559.925 299.781 559.925 301.263V334.612C559.925 336.094 559.382 336.934 558.297 337.131C557.014 337.329 556.176 336.687 555.781 335.204L554.301 327.942C553.61 324.484 552.623 322.211 551.341 321.124C550.157 320.037 548.43 319.494 546.161 319.494H538.909C537.527 319.494 536.837 320.185 536.837 321.569V358.771C536.837 362.328 537.725 364.897 539.501 366.478C541.375 368.059 544.73 368.849 549.565 368.849C554.498 368.849 558.692 367.614 562.145 365.144C565.697 362.575 568.164 357.832 569.545 350.915L571.321 342.171C571.617 340.886 572.357 340.244 573.541 340.244C574.922 340.244 575.514 341.084 575.317 342.763L573.837 369.146C573.64 371.418 572.406 372.555 570.137 372.555H518.188Z" fill="white"/>
<path d="M646.673 373.889C645.094 373.889 643.762 372.703 642.677 370.331L602.568 283.181C602.272 282.489 601.877 282.193 601.384 282.292C600.989 282.391 600.792 282.835 600.792 283.626V359.808C600.792 362.575 601.236 364.699 602.124 366.181C603.111 367.565 604.837 368.454 607.304 368.849L609.228 369.146C610.511 369.244 611.152 369.837 611.152 370.924C611.152 372.011 610.412 372.555 608.932 372.555H587.768C586.288 372.555 585.548 372.011 585.548 370.924C585.548 369.837 586.189 369.244 587.472 369.146L589.396 368.849C591.961 368.454 593.737 367.565 594.724 366.181C595.711 364.699 596.204 362.575 596.204 359.808V275.622C596.204 273.547 595.859 272.164 595.168 271.472C594.576 270.78 593.145 270.237 590.876 269.842L587.472 269.249C586.189 268.952 585.548 268.36 585.548 267.47C585.548 266.383 586.288 265.84 587.768 265.84H603.604C606.071 265.84 607.797 266.927 608.784 269.101L643.713 346.024C644.009 346.617 644.354 346.864 644.749 346.765C645.242 346.666 645.489 346.321 645.489 345.728V278.586C645.489 275.424 644.946 273.251 643.861 272.065C642.775 270.78 641.394 269.99 639.717 269.694L637.052 269.249C635.77 268.952 635.128 268.36 635.128 267.47C635.128 266.383 635.868 265.84 637.348 265.84H658.513C659.993 265.84 660.733 266.383 660.733 267.47C660.733 268.557 660.092 269.15 658.809 269.249L656.885 269.545C654.319 269.941 652.543 270.78 651.557 272.065C650.57 273.251 650.077 275.424 650.077 278.586V369.146C650.077 370.924 649.731 372.159 649.041 372.851C648.449 373.543 647.659 373.889 646.673 373.889Z" fill="white"/>
<path d="M683.531 372.555C682.051 372.555 681.311 372.011 681.311 370.924C681.311 369.837 681.952 369.244 683.235 369.146L689.895 368.108C691.868 367.812 693.2 367.318 693.891 366.626C694.582 365.836 694.927 364.403 694.927 362.328V273.399C694.927 272.016 694.631 271.027 694.039 270.435C693.447 269.842 692.214 269.545 690.339 269.545C686.688 269.545 683.087 271.126 679.535 274.288C675.983 277.45 673.664 282.539 672.579 289.554L671.839 294.445C671.641 295.73 670.951 296.372 669.767 296.372C668.287 296.372 667.645 295.532 667.843 293.853L669.175 267.026C669.372 264.753 670.26 263.617 671.839 263.617C672.529 263.617 673.171 263.814 673.763 264.21C674.355 264.506 675.341 264.852 676.723 265.247C678.203 265.642 680.522 265.84 683.679 265.84H716.683C719.841 265.84 722.11 265.642 723.492 265.247C724.972 264.852 726.008 264.506 726.6 264.21C727.29 263.814 727.932 263.617 728.524 263.617C730.102 263.617 730.99 264.753 731.188 267.026L732.52 293.853C732.717 295.532 732.076 296.372 730.596 296.372C729.412 296.372 728.721 295.73 728.524 294.445L727.784 289.554C726.797 282.539 724.528 277.45 720.975 274.288C717.423 271.126 713.773 269.545 710.023 269.545C708.149 269.545 706.915 269.842 706.323 270.435C705.731 271.027 705.435 272.016 705.435 273.399V362.328C705.435 364.403 705.781 365.836 706.471 366.626C707.261 367.318 708.593 367.812 710.467 368.108L717.127 369.146C718.41 369.244 719.051 369.837 719.051 370.924C719.051 372.011 718.311 372.555 716.831 372.555H683.531Z" fill="white"/>
<path d="M730.588 372.555C729.108 372.555 728.367 372.061 728.367 371.072C728.367 370.084 729.058 369.442 730.44 369.146L732.66 368.701C734.633 368.306 736.113 367.367 737.1 365.885C738.086 364.304 738.925 362.13 739.616 359.363L762.556 266.729C762.753 265.741 763.049 265.099 763.444 264.802C763.937 264.506 764.381 264.358 764.776 264.358C765.269 264.358 765.713 264.506 766.108 264.802C766.601 265.099 766.947 265.741 767.144 266.729L790.528 360.697C791.219 363.464 792.008 365.391 792.896 366.478C793.784 367.565 795.166 368.306 797.04 368.701L799.26 369.146C800.642 369.442 801.333 370.084 801.333 371.072C801.333 372.061 800.593 372.555 799.112 372.555H773.804C772.423 372.555 771.732 372.011 771.732 370.924C771.732 369.837 772.571 369.244 774.248 369.146L777.06 368.849C778.738 368.652 779.774 368.108 780.168 367.219C780.662 366.33 780.662 364.798 780.168 362.624L774.544 339.651C773.952 337.082 772.324 335.797 769.66 335.797H754.12C751.554 335.797 749.926 337.082 749.236 339.651L744.204 359.512C742.724 365.144 744.204 368.256 748.644 368.849L750.864 369.146C752.541 369.442 753.38 370.035 753.38 370.924C753.38 372.011 752.689 372.555 751.308 372.555H730.588ZM753.676 331.351H769.956C771.535 331.351 772.176 330.511 771.88 328.831L762.408 289.11H761.668L751.752 328.831C751.456 330.511 752.097 331.351 753.676 331.351Z" fill="white"/>
<path d="M836.986 373.889C831.658 373.889 826.922 372.653 822.778 370.183C818.732 367.614 815.575 364.106 813.306 359.66C811.036 355.115 809.902 349.927 809.902 344.097V275.622C809.902 273.547 809.556 272.164 808.866 271.472C808.274 270.78 806.942 270.237 804.87 269.842L801.465 269.249C800.183 268.952 799.541 268.36 799.541 267.47C799.541 266.383 800.281 265.84 801.761 265.84H828.846C830.326 265.84 831.066 266.433 831.066 267.618C831.066 268.508 830.523 269.051 829.438 269.249L825.442 269.842C823.468 270.138 822.136 270.682 821.446 271.472C820.755 272.263 820.41 273.695 820.41 275.77V344.246C820.41 351.755 822.087 357.585 825.442 361.735C828.796 365.885 833.483 367.96 839.502 367.96C845.619 367.96 850.355 365.885 853.71 361.735C857.065 357.585 858.742 351.755 858.742 344.246V278.735C858.742 273.399 857.065 270.435 853.71 269.842L849.714 269.249C848.629 269.051 848.086 268.508 848.086 267.618C848.086 266.433 848.826 265.84 850.306 265.84H871.618C873.098 265.84 873.839 266.383 873.839 267.47C873.839 268.36 873.197 268.952 871.914 269.249L868.51 269.842C865.156 270.435 863.478 273.349 863.478 278.586V344.097C863.478 353.089 861.061 360.302 856.226 365.737C851.392 371.171 844.978 373.889 836.986 373.889Z" fill="white"/>
<path d="M945.195 373.889C936.611 373.889 931.135 368.256 928.767 356.992L925.363 340.54C924.278 335.204 923.044 331.153 921.663 328.387C920.38 325.62 918.555 323.743 916.187 322.754C913.917 321.766 910.76 321.272 906.715 321.272C905.333 321.272 904.248 321.668 903.459 322.458C902.669 323.15 902.275 324.039 902.275 325.126V362.18C902.275 364.255 902.669 365.687 903.459 366.478C904.248 367.169 906.024 367.762 908.787 368.256L914.263 369.146C915.348 369.343 915.891 369.887 915.891 370.776C915.891 371.962 915.151 372.555 913.671 372.555H883.626C882.146 372.555 881.406 372.011 881.406 370.924C881.406 370.035 882.048 369.442 883.33 369.146L886.734 368.553C888.806 368.158 890.138 367.614 890.73 366.922C891.421 366.231 891.766 364.847 891.766 362.772V275.622C891.766 273.547 891.421 272.164 890.73 271.472C890.138 270.78 888.806 270.237 886.734 269.842L883.33 269.249C882.048 268.952 881.406 268.36 881.406 267.47C881.406 266.383 882.146 265.84 883.626 265.84H913.671C919.492 265.84 924.672 266.976 929.211 269.249C933.75 271.521 937.302 274.683 939.867 278.735C942.432 282.687 943.715 287.282 943.715 292.519C943.715 298.744 941.84 304.376 938.091 309.415C934.342 314.356 929.606 317.863 923.883 319.938C923.192 320.136 922.797 320.482 922.699 320.976C922.699 321.371 923.044 321.717 923.735 322.013C926.892 323.495 929.359 325.57 931.135 328.238C933.01 330.906 934.44 334.463 935.427 338.91L938.683 354.028C939.768 359.166 941.051 362.822 942.531 364.996C944.011 367.169 945.886 368.256 948.155 368.256C948.945 368.256 949.635 368.158 950.227 367.96C950.918 367.664 951.757 367.169 952.743 366.478C953.533 365.984 954.273 365.885 954.963 366.181C955.654 366.379 955.999 366.873 955.999 367.664C955.999 369.343 954.914 370.825 952.743 372.11C950.573 373.296 948.057 373.889 945.195 373.889ZM912.191 317.567C918.9 317.567 923.981 315.344 927.435 310.897C930.888 306.352 932.615 300.325 932.615 292.815C932.615 285.503 930.592 279.822 926.547 275.77C922.6 271.62 917.124 269.545 910.119 269.545C904.889 269.545 902.275 271.521 902.275 275.474V309.415C902.275 314.85 905.58 317.567 912.191 317.567Z" fill="white"/>
</g>
</g>
</g>
</g>
</g>
<defs>
<clipPath id="clip0_1160_56">
<rect width="1200" height="657" fill="white"/>
</clipPath>
</defs>
</svg>
