<svg width="547" height="621" viewBox="0 0 547 621" fill="none" xmlns="http://www.w3.org/2000/svg">
<g opacity="0.2">
<mask id="path-1-outside-1_10_328" maskUnits="userSpaceOnUse" x="0" y="0" width="547" height="621" fill="black">
<rect fill="white" width="547" height="621"/>
<path d="M349.039 3.67019C341.649 7.09732 334.369 14.5043 331.17 21.6902C326.317 32.7455 328.412 49.8811 336.134 60.6047C340.656 67.0167 346.282 71.4388 356.209 76.1926C369.115 82.6046 373.416 84.2629 380.476 85.8106C389.741 88.0217 392.499 88.2428 393.381 86.9162C393.823 86.1423 394.484 83.3785 395.036 80.8358C395.477 78.1825 396.47 73.7604 397.021 70.7755C400.662 53.9715 401.103 29.3184 398.014 22.4641C395.257 16.4943 384.557 5.32847 381.579 5.32847C380.917 5.32847 380.476 4.77571 380.476 4.22295C380.476 3.55963 379.483 3.11742 378.38 3.11742C377.167 3.11742 375.843 2.56467 375.512 2.0119C375.181 1.34859 370.328 0.906378 364.702 1.01693C356.43 1.01693 353.562 1.56969 349.039 3.67019Z"/>
<path d="M435.738 163.197L435.628 193.157L442.798 207.529L450.078 221.79L501.259 220.906L500.707 218.363C499.935 214.273 500.046 200.675 501.038 196.805L502.031 193.268H466.954L453.056 165.298C445.335 150.042 438.386 136.444 437.503 135.338C436.179 133.459 435.959 137.107 435.738 163.197Z"/>
<path d="M406.949 157.67C401.213 166.514 392.94 179.006 388.528 185.418C384.116 191.83 376.064 203.881 370.659 212.062C358.525 230.303 349.149 244.011 344.406 250.313L340.766 255.177L347.716 259.82C356.54 265.901 376.064 278.393 376.726 278.393C377.056 278.393 380.917 280.825 385.44 283.921C389.962 286.906 394.154 289.448 394.815 289.448C395.367 289.448 395.918 289.89 395.918 290.554C395.918 291.107 396.58 291.659 397.463 291.659C398.345 291.659 399.228 292.101 399.448 292.544C399.889 293.87 416.987 305.257 417.538 304.594C417.759 304.373 417.869 267.559 417.759 222.896L417.428 141.529L406.949 157.67Z"/>
<path d="M279.878 229.308C274.915 231.961 270.502 238.262 269.73 243.79C268.958 249.649 270.392 256.061 273.26 259.267C274.253 260.594 277.01 262.584 279.327 263.911C287.93 268.775 299.733 265.569 304.255 257.167C307.013 251.971 307.344 242.242 305.028 237.71C303.373 234.504 299.843 231.187 295.872 228.865C292.563 227.097 283.629 227.318 279.878 229.308Z"/>
<path d="M519.312 190.037C514.348 192.691 509.936 198.992 509.164 204.52C508.391 210.379 509.825 216.791 512.693 219.997C513.686 221.324 516.444 223.314 518.76 224.64C527.364 229.505 539.166 226.299 543.689 217.897C546.446 212.701 546.777 202.972 544.461 198.439C542.806 195.233 539.277 191.917 535.306 189.595C531.996 187.826 523.062 188.048 519.312 190.037Z"/>
<path d="M328.192 272.534C327.75 273.529 327.53 283.368 327.53 294.313C327.64 309.79 328.192 386.734 328.412 402.212C328.412 403.759 328.081 444.995 327.64 493.97C327.309 542.945 327.089 583.297 327.309 583.739C327.53 584.513 331.501 583.297 339.112 580.201C340.325 579.759 343.083 578.764 345.178 577.99C347.274 577.216 350.032 576.221 351.245 575.779C352.459 575.226 354.223 574.673 355.106 574.452C356.43 574.01 356.65 564.282 356.319 500.161C355.988 429.518 356.099 426.312 358.084 424.875C359.187 423.991 361.173 423.217 362.607 423.217C363.93 423.217 365.916 422.774 367.019 422.222C368.011 421.669 372.203 419.679 376.284 417.689C390.955 410.614 405.625 393.81 412.685 376.232C416.545 366.724 417.979 356.996 417.979 341.187V326.152L405.736 318.192C399.007 313.88 388.528 307.358 382.461 303.709C376.395 300.061 366.247 293.649 359.959 289.338C353.672 285.137 348.046 281.71 347.385 281.71C346.833 281.71 346.282 281.157 346.282 280.604C346.282 279.941 345.73 279.499 345.068 279.499C344.406 279.499 341.097 277.509 337.567 275.076C334.148 272.644 330.729 270.654 330.067 270.654C329.405 270.654 328.523 271.539 328.192 272.534Z"/>
<path d="M47.9086 287.127C47.5777 287.79 46.0335 288.343 44.5995 288.343C42.0625 288.343 32.797 292.654 32.1351 294.091C31.9145 294.644 31.2527 294.976 30.5909 294.976C28.4951 294.976 15.1483 308.795 10.4052 316.091C7.7579 320.071 4.66938 326.815 3.34573 331.016C1.13964 338.312 1.02934 341.408 1.02934 397.126C0.919035 429.297 1.13964 455.719 1.36025 455.94C2.35299 456.935 15.3689 453.729 20.6635 451.076C23.9726 449.528 29.4878 445.327 33.0176 441.9C39.4152 435.488 43.4965 429.186 47.688 419.347C49.7838 414.151 50.0044 411.166 50.6662 375.679C51.2178 338.091 51.3281 337.428 53.9754 332.011C55.4093 328.915 57.9463 325.046 59.4906 323.388C60.9245 321.619 66.2191 317.86 71.0725 314.875C75.9259 311.89 81.2205 308.242 82.7648 306.915C85.9636 304.041 94.1261 293.87 93.5746 293.539C92.9128 293.096 86.7357 290.333 84.309 289.338C79.5659 287.458 74.9332 286.905 62.0276 286.463C53.4238 286.132 48.4601 286.463 47.9086 287.127Z"/>
<path d="M143.873 287.237C143.542 287.79 141.557 288.343 139.461 288.343C137.365 288.343 135.38 288.785 135.049 289.448C134.718 290.001 133.394 290.554 132.291 290.554C129.203 290.554 118.393 296.745 110.672 302.936C100.855 310.785 93.6849 320.845 89.8242 332.121C85.4121 344.724 84.8605 351.579 84.8605 396.352V439.689L79.3453 447.096C76.3671 451.076 71.2931 457.377 68.0943 461.026C64.8955 464.674 60.373 470.201 58.0566 473.407L53.7548 479.046L54.196 526.804L54.5269 574.673H81.8823L81.1102 559.196C80.669 550.684 80.669 533.548 81.1102 521.166L81.8823 498.613L184.796 394.584L184.686 340.413V286.132H164.61C152.477 286.132 144.315 286.574 143.873 287.237Z"/>
<path d="M202.224 287.9C202.555 288.895 202.886 312.996 202.886 341.518V393.367H206.085C207.96 393.367 209.725 393.81 210.056 394.473C210.387 395.026 212.152 395.579 213.916 395.579C215.681 395.579 217.446 396.021 217.777 396.684C218.108 397.237 219.873 397.79 221.748 397.79C223.513 397.79 224.947 398.232 224.947 398.895C224.947 399.448 226.381 400.001 228.146 400.001C230.021 400.001 231.675 400.443 232.006 400.996C232.337 401.548 233.771 402.212 235.095 402.543C236.529 402.764 246.567 405.86 257.487 409.398C268.407 412.825 280.32 416.362 283.96 417.247C287.6 418.131 291.46 419.347 292.453 420.011C293.556 420.563 295.652 421.006 297.086 421.006C298.63 421.006 300.174 421.448 300.505 422.111C300.836 422.664 302.38 423.217 303.814 423.217C305.248 423.217 306.793 423.659 307.124 424.322C307.454 424.875 308.116 425.428 308.557 425.428C308.999 425.428 309.33 394.031 309.44 355.78V286.132H255.501C206.747 286.132 201.562 286.353 202.224 287.9Z"/>
<path d="M431.988 376.453C431.767 376.895 430.885 379.327 430.223 381.759C429.451 384.192 427.024 389.94 424.818 394.473C421.619 400.885 418.31 405.197 410.148 413.488C404.191 419.458 398.897 424.322 398.235 424.322C397.573 424.322 397.021 424.764 397.021 425.428C397.021 426.091 410.81 426.202 434.856 425.759C472.47 425.096 472.8 425.096 473.352 427.307C474.014 429.629 469.16 450.191 466.072 458.151C464.086 463.568 458.461 482.694 456.696 490.211C455.483 495.186 455.593 496.955 457.578 504.03C458.792 508.563 460.336 514.533 461.108 517.407C462.322 522.603 462.322 522.603 464.638 520.392C465.851 519.287 467.616 518.292 468.388 518.292C469.16 518.292 469.822 517.739 469.822 517.186C469.822 516.523 470.374 516.081 471.036 516.081C473.462 516.081 478.647 511.438 478.647 509.337C478.647 508.121 479.088 506.352 479.639 505.247C480.191 504.252 481.735 499.608 483.059 495.076C484.382 490.543 486.147 484.794 486.919 482.362C487.692 479.93 489.236 474.402 490.229 470.201C492.104 462.242 493.207 458.815 500.156 437.81C503.906 426.423 504.237 424.543 503.575 417.689C503.244 413.488 502.252 408.182 501.48 405.86C500.487 402.543 499.053 400.996 494.641 398.674C491.552 397.016 483.39 393.81 476.441 391.599C469.491 389.277 463.314 387.066 462.763 386.513C462.101 386.071 460.557 385.629 459.123 385.629C457.689 385.629 455.593 385.076 454.38 384.523C453.166 383.86 451.181 382.865 449.967 382.312C448.754 381.649 446.989 381.207 446.107 381.207C445.224 381.207 444.452 380.654 444.452 380.101C444.452 379.438 443.349 378.996 441.915 378.996C440.481 378.996 438.937 378.553 438.386 378.001C436.731 376.453 432.539 375.458 431.988 376.453Z"/>
<path d="M187.774 417.91C182.921 422.996 171.67 434.051 162.846 442.563L146.851 458.041L146.079 468.322C145.748 474.071 145.197 480.041 144.866 481.588L144.314 484.573H157.882C165.383 484.573 172.552 485.015 173.986 485.458C176.303 486.342 178.288 484.684 191.745 471.086C214.358 448.312 221.638 439.468 230.241 424.101L232.448 420.232L228.918 419.016C226.932 418.242 224.285 417.689 222.961 417.689C221.748 417.689 220.314 417.136 219.983 416.584C219.652 415.92 217.887 415.478 216.123 415.478C214.358 415.478 212.593 414.925 212.262 414.372C211.931 413.709 210.166 413.267 208.291 413.267C206.526 413.267 205.092 412.714 205.092 412.161C205.092 411.498 203.658 411.056 202.004 411.056C200.349 411.056 198.364 410.503 197.812 409.95C197.04 409.177 193.841 411.719 187.774 417.91Z"/>
<path d="M430.885 502.372C430.444 502.814 427.796 503.367 424.928 503.699C421.95 503.92 419.524 504.252 419.303 504.473C419.193 504.583 419.193 514.422 419.303 526.362L419.634 548.03L424.598 544.935C430.444 541.287 439.599 536.091 443.018 534.432C444.452 533.769 445.555 532.664 445.555 532.111C445.555 531.447 444.452 527.246 443.239 522.714C441.033 514.865 439.158 506.131 439.047 503.036C438.937 502.262 437.393 501.709 435.297 501.709C433.201 501.709 431.216 502.041 430.885 502.372Z"/>
<path d="M147.624 507.458C148.837 509.448 152.146 516.855 154.904 523.819C160.198 536.975 172.001 564.724 174.869 571.025L176.523 574.673H206.305L204.761 571.578C203.879 569.92 202.555 567.045 201.783 565.277C201.011 563.397 200.018 561.076 199.467 560.081C198.915 558.975 198.474 557.648 198.474 556.985C198.474 556.432 197.04 552.674 195.165 548.694C193.4 544.714 191.856 541.176 191.856 540.955C191.856 540.623 190.863 538.302 189.65 535.648C188.436 533.106 185.017 525.035 182.039 517.739L176.523 504.473L145.528 503.809L147.624 507.458Z"/>
<path d="M357.422 592.472C353.12 594.241 346.943 596.895 344.958 598C343.855 598.553 342.09 598.995 340.987 598.995C337.237 598.995 336.354 601.317 336.354 610.824V620H355.768C366.467 620 374.961 619.668 374.74 619.116C374.519 618.673 371.872 613.367 368.784 607.176C365.695 601.096 362.937 595.015 362.607 593.689C361.834 591.035 361.283 590.925 357.422 592.472Z"/>
<path d="M59.4906 600.322C59.4906 604.744 59.8215 611.045 60.1524 614.141L60.9245 620H98.9795L96.4425 614.693C95.0085 611.819 92.2509 605.628 90.3758 600.874L86.846 592.362H59.4906V600.322Z"/>
<path d="M184.576 594.794C185.017 596.231 186.12 602.422 187.223 608.613L188.988 620H224.726L220.424 609.719C217.998 604.191 215.35 597.889 214.468 595.9L212.813 592.362H183.914L184.576 594.794Z"/>
</mask>
<path d="M349.039 3.67019C341.649 7.09732 334.369 14.5043 331.17 21.6902C326.317 32.7455 328.412 49.8811 336.134 60.6047C340.656 67.0167 346.282 71.4388 356.209 76.1926C369.115 82.6046 373.416 84.2629 380.476 85.8106C389.741 88.0217 392.499 88.2428 393.381 86.9162C393.823 86.1423 394.484 83.3785 395.036 80.8358C395.477 78.1825 396.47 73.7604 397.021 70.7755C400.662 53.9715 401.103 29.3184 398.014 22.4641C395.257 16.4943 384.557 5.32847 381.579 5.32847C380.917 5.32847 380.476 4.77571 380.476 4.22295C380.476 3.55963 379.483 3.11742 378.38 3.11742C377.167 3.11742 375.843 2.56467 375.512 2.0119C375.181 1.34859 370.328 0.906378 364.702 1.01693C356.43 1.01693 353.562 1.56969 349.039 3.67019Z" stroke="white" stroke-width="2" mask="url(#path-1-outside-1_10_328)"/>
<path d="M435.738 163.197L435.628 193.157L442.798 207.529L450.078 221.79L501.259 220.906L500.707 218.363C499.935 214.273 500.046 200.675 501.038 196.805L502.031 193.268H466.954L453.056 165.298C445.335 150.042 438.386 136.444 437.503 135.338C436.179 133.459 435.959 137.107 435.738 163.197Z" stroke="white" stroke-width="2" mask="url(#path-1-outside-1_10_328)"/>
<path d="M406.949 157.67C401.213 166.514 392.94 179.006 388.528 185.418C384.116 191.83 376.064 203.881 370.659 212.062C358.525 230.303 349.149 244.011 344.406 250.313L340.766 255.177L347.716 259.82C356.54 265.901 376.064 278.393 376.726 278.393C377.056 278.393 380.917 280.825 385.44 283.921C389.962 286.906 394.154 289.448 394.815 289.448C395.367 289.448 395.918 289.89 395.918 290.554C395.918 291.107 396.58 291.659 397.463 291.659C398.345 291.659 399.228 292.101 399.448 292.544C399.889 293.87 416.987 305.257 417.538 304.594C417.759 304.373 417.869 267.559 417.759 222.896L417.428 141.529L406.949 157.67Z" stroke="white" stroke-width="2" mask="url(#path-1-outside-1_10_328)"/>
<path d="M279.878 229.308C274.915 231.961 270.502 238.262 269.73 243.79C268.958 249.649 270.392 256.061 273.26 259.267C274.253 260.594 277.01 262.584 279.327 263.911C287.93 268.775 299.733 265.569 304.255 257.167C307.013 251.971 307.344 242.242 305.028 237.71C303.373 234.504 299.843 231.187 295.872 228.865C292.563 227.097 283.629 227.318 279.878 229.308Z" stroke="white" stroke-width="2" mask="url(#path-1-outside-1_10_328)"/>
<path d="M519.312 190.037C514.348 192.691 509.936 198.992 509.164 204.52C508.391 210.379 509.825 216.791 512.693 219.997C513.686 221.324 516.444 223.314 518.76 224.64C527.364 229.505 539.166 226.299 543.689 217.897C546.446 212.701 546.777 202.972 544.461 198.439C542.806 195.233 539.277 191.917 535.306 189.595C531.996 187.826 523.062 188.048 519.312 190.037Z" stroke="white" stroke-width="2" mask="url(#path-1-outside-1_10_328)"/>
<path d="M328.192 272.534C327.75 273.529 327.53 283.368 327.53 294.313C327.64 309.79 328.192 386.734 328.412 402.212C328.412 403.759 328.081 444.995 327.64 493.97C327.309 542.945 327.089 583.297 327.309 583.739C327.53 584.513 331.501 583.297 339.112 580.201C340.325 579.759 343.083 578.764 345.178 577.99C347.274 577.216 350.032 576.221 351.245 575.779C352.459 575.226 354.223 574.673 355.106 574.452C356.43 574.01 356.65 564.282 356.319 500.161C355.988 429.518 356.099 426.312 358.084 424.875C359.187 423.991 361.173 423.217 362.607 423.217C363.93 423.217 365.916 422.774 367.019 422.222C368.011 421.669 372.203 419.679 376.284 417.689C390.955 410.614 405.625 393.81 412.685 376.232C416.545 366.724 417.979 356.996 417.979 341.187V326.152L405.736 318.192C399.007 313.88 388.528 307.358 382.461 303.709C376.395 300.061 366.247 293.649 359.959 289.338C353.672 285.137 348.046 281.71 347.385 281.71C346.833 281.71 346.282 281.157 346.282 280.604C346.282 279.941 345.73 279.499 345.068 279.499C344.406 279.499 341.097 277.509 337.567 275.076C334.148 272.644 330.729 270.654 330.067 270.654C329.405 270.654 328.523 271.539 328.192 272.534Z" stroke="white" stroke-width="2" mask="url(#path-1-outside-1_10_328)"/>
<path d="M47.9086 287.127C47.5777 287.79 46.0335 288.343 44.5995 288.343C42.0625 288.343 32.797 292.654 32.1351 294.091C31.9145 294.644 31.2527 294.976 30.5909 294.976C28.4951 294.976 15.1483 308.795 10.4052 316.091C7.7579 320.071 4.66938 326.815 3.34573 331.016C1.13964 338.312 1.02934 341.408 1.02934 397.126C0.919035 429.297 1.13964 455.719 1.36025 455.94C2.35299 456.935 15.3689 453.729 20.6635 451.076C23.9726 449.528 29.4878 445.327 33.0176 441.9C39.4152 435.488 43.4965 429.186 47.688 419.347C49.7838 414.151 50.0044 411.166 50.6662 375.679C51.2178 338.091 51.3281 337.428 53.9754 332.011C55.4093 328.915 57.9463 325.046 59.4906 323.388C60.9245 321.619 66.2191 317.86 71.0725 314.875C75.9259 311.89 81.2205 308.242 82.7648 306.915C85.9636 304.041 94.1261 293.87 93.5746 293.539C92.9128 293.096 86.7357 290.333 84.309 289.338C79.5659 287.458 74.9332 286.905 62.0276 286.463C53.4238 286.132 48.4601 286.463 47.9086 287.127Z" stroke="white" stroke-width="2" mask="url(#path-1-outside-1_10_328)"/>
<path d="M143.873 287.237C143.542 287.79 141.557 288.343 139.461 288.343C137.365 288.343 135.38 288.785 135.049 289.448C134.718 290.001 133.394 290.554 132.291 290.554C129.203 290.554 118.393 296.745 110.672 302.936C100.855 310.785 93.6849 320.845 89.8242 332.121C85.4121 344.724 84.8605 351.579 84.8605 396.352V439.689L79.3453 447.096C76.3671 451.076 71.2931 457.377 68.0943 461.026C64.8955 464.674 60.373 470.201 58.0566 473.407L53.7548 479.046L54.196 526.804L54.5269 574.673H81.8823L81.1102 559.196C80.669 550.684 80.669 533.548 81.1102 521.166L81.8823 498.613L184.796 394.584L184.686 340.413V286.132H164.61C152.477 286.132 144.315 286.574 143.873 287.237Z" stroke="white" stroke-width="2" mask="url(#path-1-outside-1_10_328)"/>
<path d="M202.224 287.9C202.555 288.895 202.886 312.996 202.886 341.518V393.367H206.085C207.96 393.367 209.725 393.81 210.056 394.473C210.387 395.026 212.152 395.579 213.916 395.579C215.681 395.579 217.446 396.021 217.777 396.684C218.108 397.237 219.873 397.79 221.748 397.79C223.513 397.79 224.947 398.232 224.947 398.895C224.947 399.448 226.381 400.001 228.146 400.001C230.021 400.001 231.675 400.443 232.006 400.996C232.337 401.548 233.771 402.212 235.095 402.543C236.529 402.764 246.567 405.86 257.487 409.398C268.407 412.825 280.32 416.362 283.96 417.247C287.6 418.131 291.46 419.347 292.453 420.011C293.556 420.563 295.652 421.006 297.086 421.006C298.63 421.006 300.174 421.448 300.505 422.111C300.836 422.664 302.38 423.217 303.814 423.217C305.248 423.217 306.793 423.659 307.124 424.322C307.454 424.875 308.116 425.428 308.557 425.428C308.999 425.428 309.33 394.031 309.44 355.78V286.132H255.501C206.747 286.132 201.562 286.353 202.224 287.9Z" stroke="white" stroke-width="2" mask="url(#path-1-outside-1_10_328)"/>
<path d="M431.988 376.453C431.767 376.895 430.885 379.327 430.223 381.759C429.451 384.192 427.024 389.94 424.818 394.473C421.619 400.885 418.31 405.197 410.148 413.488C404.191 419.458 398.897 424.322 398.235 424.322C397.573 424.322 397.021 424.764 397.021 425.428C397.021 426.091 410.81 426.202 434.856 425.759C472.47 425.096 472.8 425.096 473.352 427.307C474.014 429.629 469.16 450.191 466.072 458.151C464.086 463.568 458.461 482.694 456.696 490.211C455.483 495.186 455.593 496.955 457.578 504.03C458.792 508.563 460.336 514.533 461.108 517.407C462.322 522.603 462.322 522.603 464.638 520.392C465.851 519.287 467.616 518.292 468.388 518.292C469.16 518.292 469.822 517.739 469.822 517.186C469.822 516.523 470.374 516.081 471.036 516.081C473.462 516.081 478.647 511.438 478.647 509.337C478.647 508.121 479.088 506.352 479.639 505.247C480.191 504.252 481.735 499.608 483.059 495.076C484.382 490.543 486.147 484.794 486.919 482.362C487.692 479.93 489.236 474.402 490.229 470.201C492.104 462.242 493.207 458.815 500.156 437.81C503.906 426.423 504.237 424.543 503.575 417.689C503.244 413.488 502.252 408.182 501.48 405.86C500.487 402.543 499.053 400.996 494.641 398.674C491.552 397.016 483.39 393.81 476.441 391.599C469.491 389.277 463.314 387.066 462.763 386.513C462.101 386.071 460.557 385.629 459.123 385.629C457.689 385.629 455.593 385.076 454.38 384.523C453.166 383.86 451.181 382.865 449.967 382.312C448.754 381.649 446.989 381.207 446.107 381.207C445.224 381.207 444.452 380.654 444.452 380.101C444.452 379.438 443.349 378.996 441.915 378.996C440.481 378.996 438.937 378.553 438.386 378.001C436.731 376.453 432.539 375.458 431.988 376.453Z" stroke="white" stroke-width="2" mask="url(#path-1-outside-1_10_328)"/>
<path d="M187.774 417.91C182.921 422.996 171.67 434.051 162.846 442.563L146.851 458.041L146.079 468.322C145.748 474.071 145.197 480.041 144.866 481.588L144.314 484.573H157.882C165.383 484.573 172.552 485.015 173.986 485.458C176.303 486.342 178.288 484.684 191.745 471.086C214.358 448.312 221.638 439.468 230.241 424.101L232.448 420.232L228.918 419.016C226.932 418.242 224.285 417.689 222.961 417.689C221.748 417.689 220.314 417.136 219.983 416.584C219.652 415.92 217.887 415.478 216.123 415.478C214.358 415.478 212.593 414.925 212.262 414.372C211.931 413.709 210.166 413.267 208.291 413.267C206.526 413.267 205.092 412.714 205.092 412.161C205.092 411.498 203.658 411.056 202.004 411.056C200.349 411.056 198.364 410.503 197.812 409.95C197.04 409.177 193.841 411.719 187.774 417.91Z" stroke="white" stroke-width="2" mask="url(#path-1-outside-1_10_328)"/>
<path d="M430.885 502.372C430.444 502.814 427.796 503.367 424.928 503.699C421.95 503.92 419.524 504.252 419.303 504.473C419.193 504.583 419.193 514.422 419.303 526.362L419.634 548.03L424.598 544.935C430.444 541.287 439.599 536.091 443.018 534.432C444.452 533.769 445.555 532.664 445.555 532.111C445.555 531.447 444.452 527.246 443.239 522.714C441.033 514.865 439.158 506.131 439.047 503.036C438.937 502.262 437.393 501.709 435.297 501.709C433.201 501.709 431.216 502.041 430.885 502.372Z" stroke="white" stroke-width="2" mask="url(#path-1-outside-1_10_328)"/>
<path d="M147.624 507.458C148.837 509.448 152.146 516.855 154.904 523.819C160.198 536.975 172.001 564.724 174.869 571.025L176.523 574.673H206.305L204.761 571.578C203.879 569.92 202.555 567.045 201.783 565.277C201.011 563.397 200.018 561.076 199.467 560.081C198.915 558.975 198.474 557.648 198.474 556.985C198.474 556.432 197.04 552.674 195.165 548.694C193.4 544.714 191.856 541.176 191.856 540.955C191.856 540.623 190.863 538.302 189.65 535.648C188.436 533.106 185.017 525.035 182.039 517.739L176.523 504.473L145.528 503.809L147.624 507.458Z" stroke="white" stroke-width="2" mask="url(#path-1-outside-1_10_328)"/>
<path d="M357.422 592.472C353.12 594.241 346.943 596.895 344.958 598C343.855 598.553 342.09 598.995 340.987 598.995C337.237 598.995 336.354 601.317 336.354 610.824V620H355.768C366.467 620 374.961 619.668 374.74 619.116C374.519 618.673 371.872 613.367 368.784 607.176C365.695 601.096 362.937 595.015 362.607 593.689C361.834 591.035 361.283 590.925 357.422 592.472Z" stroke="white" stroke-width="2" mask="url(#path-1-outside-1_10_328)"/>
<path d="M59.4906 600.322C59.4906 604.744 59.8215 611.045 60.1524 614.141L60.9245 620H98.9795L96.4425 614.693C95.0085 611.819 92.2509 605.628 90.3758 600.874L86.846 592.362H59.4906V600.322Z" stroke="white" stroke-width="2" mask="url(#path-1-outside-1_10_328)"/>
<path d="M184.576 594.794C185.017 596.231 186.12 602.422 187.223 608.613L188.988 620H224.726L220.424 609.719C217.998 604.191 215.35 597.889 214.468 595.9L212.813 592.362H183.914L184.576 594.794Z" stroke="white" stroke-width="2" mask="url(#path-1-outside-1_10_328)"/>
</g>
</svg>
