<svg width="275" height="275" viewBox="0 0 275 275" fill="none" xmlns="http://www.w3.org/2000/svg">
<rect width="275" height="275" fill="url(#paint0_linear_10_322)"/>
<path d="M159.815 46.7894C157.632 47.8026 155.481 49.9924 154.536 52.1168C153.103 55.3852 153.722 60.4511 156.003 63.6214C157.339 65.5171 159.001 66.8244 161.933 68.2298C165.746 70.1254 167.017 70.6157 169.102 71.0733C171.839 71.7269 172.654 71.7923 172.915 71.4001C173.045 71.1713 173.24 70.3542 173.403 69.6025C173.534 68.8181 173.827 67.5108 173.99 66.6283C175.065 61.6604 175.195 54.372 174.283 52.3456C173.468 50.5807 170.308 47.2797 169.428 47.2797C169.232 47.2797 169.102 47.1162 169.102 46.9528C169.102 46.7567 168.809 46.626 168.483 46.626C168.124 46.626 167.733 46.4626 167.636 46.2992C167.538 46.1031 166.104 45.9723 164.442 46.005C161.998 46.005 161.151 46.1684 159.815 46.7894Z" fill="white"/>
<path d="M156.068 74.2436V76.6948H141.339L139.189 78.9173C132.509 85.6828 118.432 100.292 118.367 100.488C118.302 100.619 121.071 103.495 124.493 106.927C127.914 110.326 131.01 113.496 131.336 113.921L131.955 114.706L132.476 113.464C133.095 111.96 135.995 109.052 136.875 109.052C137.201 109.052 137.494 108.953 137.494 108.855C137.494 108.725 137.103 108.234 136.615 107.777C136.093 107.287 134.757 105.816 133.584 104.508C132.411 103.168 131.271 101.894 131.075 101.665C130.847 101.436 130.651 101.109 130.651 100.979C130.651 100.619 133.519 97.8084 138.635 93.1673C140.785 91.2063 142.903 89.2126 143.327 88.7223C143.751 88.1994 144.337 87.8072 144.63 87.8072C145.282 87.8072 145.966 88.4282 145.966 89.0165C145.966 89.2453 146.227 90.0624 146.586 90.8468C146.911 91.5985 147.531 93.1019 147.954 94.1805C148.345 95.2591 148.997 96.8605 149.421 97.7757C151.539 102.613 152.549 105.064 154.113 109.052C155.058 111.47 155.905 113.529 156.003 113.627C156.1 113.725 156.198 113.627 156.296 113.431C156.361 113.235 158.121 110.555 160.239 107.483C162.324 104.378 165.094 100.292 166.332 98.3967C167.603 96.4683 168.841 94.6381 169.135 94.3112C169.428 93.9844 170.862 91.8273 172.361 89.5394C173.859 87.2516 176.075 83.8525 177.281 82.0549L179.497 78.7539L178.128 78.5251C176.434 78.2309 172.523 77.7407 169.917 77.4792C168.841 77.3812 167.831 77.1524 167.636 76.989C167.473 76.8255 166.495 76.6948 165.452 76.6948C163.66 76.6948 162.65 76.368 161.705 75.4855C161.444 75.2567 160.825 74.8319 160.304 74.505C159.75 74.2109 159.326 73.8187 159.326 73.6879C159.326 73.5572 159.098 73.4265 158.838 73.4265C158.577 73.4265 158.349 73.2957 158.349 73.165C158.349 72.9035 156.654 71.7923 156.263 71.7923C156.166 71.7923 156.068 72.9035 156.068 74.2436Z" fill="white"/>
<path d="M185.427 93.9517L185.395 102.809L187.513 107.058L189.663 111.274L204.783 111.013L204.62 110.261C204.392 109.051 204.424 105.031 204.718 103.888L205.011 102.842H194.649L190.543 94.5727C188.262 90.0624 186.209 86.0423 185.949 85.7155C185.558 85.1598 185.492 86.2384 185.427 93.9517Z" fill="white"/>
<path d="M176.923 92.3175C175.228 94.9322 172.784 98.6255 171.481 100.521C170.177 102.417 167.799 105.979 166.202 108.398C162.618 113.791 159.848 117.843 158.447 119.706L157.371 121.144L159.424 122.517C162.031 124.315 167.799 128.008 167.994 128.008C168.092 128.008 169.232 128.727 170.568 129.642C171.904 130.525 173.143 131.276 173.338 131.276C173.501 131.276 173.664 131.407 173.664 131.603C173.664 131.767 173.859 131.93 174.12 131.93C174.381 131.93 174.642 132.061 174.707 132.191C174.837 132.584 179.888 135.95 180.051 135.754C180.116 135.689 180.148 124.805 180.116 111.601L180.018 87.5457L176.923 92.3175Z" fill="white"/>
<path d="M139.384 113.496C137.918 114.281 136.614 116.144 136.386 117.778C136.158 119.51 136.582 121.406 137.429 122.354C137.722 122.746 138.537 123.334 139.221 123.726C141.763 125.164 145.25 124.217 146.586 121.733C147.4 120.197 147.498 117.32 146.814 115.98C146.325 115.033 145.282 114.052 144.109 113.366C143.132 112.843 140.492 112.908 139.384 113.496Z" fill="white"/>
<path d="M210.116 101.887C208.65 102.671 207.346 104.534 207.118 106.168C206.89 107.9 207.314 109.796 208.161 110.744C208.454 111.136 209.269 111.724 209.953 112.117C212.495 113.555 215.981 112.607 217.317 110.123C218.132 108.587 218.23 105.711 217.545 104.371C217.057 103.423 216.014 102.442 214.841 101.756C213.863 101.233 211.224 101.298 210.116 101.887Z" fill="white"/>
<path d="M153.657 126.276C153.526 126.57 153.461 129.479 153.461 132.714C153.494 137.29 153.657 160.038 153.722 164.613C153.722 165.071 153.624 177.262 153.494 191.741C153.396 206.22 153.331 218.149 153.396 218.28C153.461 218.509 154.634 218.149 156.883 217.234C157.241 217.103 158.056 216.809 158.675 216.58C159.294 216.351 160.108 216.057 160.467 215.927C160.825 215.763 161.347 215.6 161.607 215.534C161.998 215.404 162.064 212.528 161.966 193.571C161.868 172.686 161.901 171.738 162.487 171.314C162.813 171.052 163.4 170.823 163.823 170.823C164.214 170.823 164.801 170.693 165.127 170.529C165.42 170.366 166.658 169.777 167.864 169.189C172.198 167.097 176.531 162.13 178.617 156.933C179.757 154.122 180.181 151.246 180.181 146.572V142.127L176.564 139.774C174.576 138.499 171.481 136.571 169.689 135.492C167.896 134.414 164.899 132.518 163.041 131.244C161.184 130.002 159.522 128.988 159.326 128.988C159.164 128.988 159.001 128.825 159.001 128.662C159.001 128.466 158.838 128.335 158.642 128.335C158.447 128.335 157.469 127.746 156.426 127.027C155.416 126.308 154.406 125.72 154.211 125.72C154.015 125.72 153.754 125.982 153.657 126.276Z" fill="white"/>
<path d="M70.8574 130.59C70.7597 130.786 70.3035 130.949 69.8799 130.949C69.1304 130.949 66.3932 132.224 66.1977 132.649C66.1325 132.812 65.937 132.91 65.7415 132.91C65.1224 132.91 61.1796 136.996 59.7784 139.153C58.9964 140.33 58.084 142.323 57.693 143.565C57.0413 145.722 57.0087 146.638 57.0087 163.11C56.9761 172.621 57.0413 180.432 57.1064 180.498C57.3997 180.792 61.2448 179.844 62.8088 179.06C63.7864 178.602 65.4157 177.36 66.4584 176.347C68.3483 174.451 69.554 172.588 70.7922 169.679C71.4114 168.143 71.4765 167.261 71.672 156.769C71.835 145.657 71.8676 145.461 72.6496 143.859C73.0732 142.944 73.8227 141.8 74.2789 141.31C74.7025 140.787 76.2666 139.676 77.7003 138.793C79.1341 137.911 80.6982 136.832 81.1544 136.44C82.0993 135.591 84.5106 132.584 84.3477 132.486C84.1522 132.355 82.3274 131.538 81.6106 131.244C80.2094 130.688 78.8408 130.525 75.0283 130.394C72.4867 130.296 71.0203 130.394 70.8574 130.59Z" fill="white"/>
<path d="M99.2066 130.623C99.1088 130.786 98.5223 130.949 97.9032 130.949C97.2841 130.949 96.6975 131.08 96.5998 131.276C96.502 131.44 96.111 131.603 95.7852 131.603C94.8728 131.603 91.6794 133.433 89.3984 135.264C86.4983 137.584 84.3803 140.558 83.2398 143.892C81.9364 147.618 81.7735 149.644 81.7735 162.881V175.693L80.1442 177.883C79.2644 179.06 77.7655 180.923 76.8205 182.001C75.8755 183.08 74.5395 184.714 73.8553 185.662L72.5844 187.329L72.7148 201.448L72.8125 215.6H80.8937L80.6656 211.024C80.5352 208.507 80.5352 203.441 80.6656 199.781L80.8937 193.114L111.296 162.358L111.263 146.343V130.296H105.333C101.748 130.296 99.3369 130.427 99.2066 130.623Z" fill="white"/>
<path d="M116.444 130.819C116.542 131.113 116.64 138.238 116.64 146.67V161.999H117.585C118.139 161.999 118.66 162.13 118.758 162.326C118.856 162.489 119.377 162.652 119.898 162.652C120.42 162.652 120.941 162.783 121.039 162.979C121.137 163.143 121.658 163.306 122.212 163.306C122.733 163.306 123.157 163.437 123.157 163.633C123.157 163.796 123.58 163.96 124.102 163.96C124.656 163.96 125.144 164.091 125.242 164.254C125.34 164.417 125.764 164.613 126.155 164.712C126.578 164.777 129.544 165.692 132.769 166.738C135.995 167.751 139.515 168.797 140.59 169.058C141.665 169.32 142.806 169.679 143.099 169.876C143.425 170.039 144.044 170.17 144.468 170.17C144.924 170.17 145.38 170.3 145.478 170.497C145.575 170.66 146.032 170.823 146.455 170.823C146.879 170.823 147.335 170.954 147.433 171.15C147.531 171.314 147.726 171.477 147.856 171.477C147.987 171.477 148.085 162.195 148.117 150.886V130.296H132.183C117.78 130.296 116.249 130.361 116.444 130.819Z" fill="white"/>
<path d="M184.319 156.998C184.254 157.129 183.994 157.848 183.798 158.567C183.57 159.286 182.853 160.986 182.201 162.326C181.256 164.221 180.279 165.496 177.867 167.947C176.108 169.712 174.544 171.15 174.348 171.15C174.153 171.15 173.99 171.281 173.99 171.477C173.99 171.673 178.063 171.706 185.167 171.575C196.278 171.379 196.376 171.379 196.539 172.033C196.734 172.719 195.301 178.798 194.388 181.151C193.802 182.753 192.14 188.407 191.618 190.63C191.26 192.1 191.293 192.623 191.879 194.715C192.238 196.055 192.694 197.82 192.922 198.67C193.28 200.206 193.28 200.206 193.965 199.552C194.323 199.225 194.844 198.931 195.073 198.931C195.301 198.931 195.496 198.768 195.496 198.604C195.496 198.408 195.659 198.278 195.855 198.278C196.571 198.278 198.103 196.905 198.103 196.284C198.103 195.924 198.233 195.401 198.396 195.075C198.559 194.78 199.015 193.408 199.406 192.068C199.797 190.728 200.319 189.028 200.547 188.309C200.775 187.59 201.231 185.956 201.524 184.714C202.078 182.361 202.404 181.347 204.457 175.138C205.565 171.771 205.663 171.216 205.467 169.189C205.369 167.947 205.076 166.378 204.848 165.692C204.555 164.712 204.131 164.254 202.828 163.568C201.915 163.077 199.504 162.13 197.451 161.476C195.398 160.79 193.574 160.136 193.411 159.972C193.215 159.842 192.759 159.711 192.335 159.711C191.912 159.711 191.293 159.548 190.934 159.384C190.576 159.188 189.989 158.894 189.631 158.73C189.272 158.534 188.751 158.404 188.49 158.404C188.23 158.404 188.002 158.24 188.002 158.077C188.002 157.881 187.676 157.75 187.252 157.75C186.828 157.75 186.372 157.619 186.209 157.456C185.721 156.998 184.482 156.704 184.319 156.998Z" fill="white"/>
<path d="M112.176 169.255C110.742 170.758 107.418 174.026 104.811 176.543L100.086 181.119L99.8583 184.158C99.7606 185.858 99.5976 187.623 99.4999 188.08L99.3369 188.963H103.345C105.561 188.963 107.679 189.093 108.102 189.224C108.787 189.486 109.373 188.995 113.349 184.975C120.029 178.243 122.179 175.628 124.721 171.085L125.373 169.941L124.33 169.581C123.743 169.353 122.961 169.189 122.57 169.189C122.212 169.189 121.788 169.026 121.69 168.862C121.593 168.666 121.071 168.536 120.55 168.536C120.029 168.536 119.507 168.372 119.409 168.209C119.312 168.013 118.79 167.882 118.236 167.882C117.715 167.882 117.291 167.718 117.291 167.555C117.291 167.359 116.868 167.228 116.379 167.228C115.89 167.228 115.304 167.065 115.141 166.901C114.913 166.673 113.968 167.424 112.176 169.255Z" fill="white"/>
<path d="M183.994 194.225C183.863 194.355 183.081 194.519 182.234 194.617C181.354 194.682 180.637 194.78 180.572 194.846C180.539 194.878 180.539 197.787 180.572 201.317L180.67 207.723L182.136 206.808C183.863 205.729 186.568 204.193 187.578 203.703C188.002 203.507 188.327 203.18 188.327 203.017C188.327 202.821 188.002 201.579 187.643 200.239C186.991 197.918 186.437 195.336 186.405 194.421C186.372 194.192 185.916 194.029 185.297 194.029C184.678 194.029 184.091 194.127 183.994 194.225Z" fill="white"/>
<path d="M100.315 195.728C100.673 196.316 101.65 198.506 102.465 200.565C104.029 204.455 107.516 212.658 108.363 214.521L108.852 215.6H117.65L117.194 214.685C116.933 214.194 116.542 213.345 116.314 212.822C116.086 212.266 115.793 211.58 115.63 211.286C115.467 210.959 115.336 210.567 115.336 210.37C115.336 210.207 114.913 209.096 114.359 207.919C113.837 206.743 113.381 205.697 113.381 205.631C113.381 205.533 113.088 204.847 112.729 204.062C112.371 203.311 111.361 200.925 110.481 198.768L108.852 194.846L99.6954 194.65L100.315 195.728Z" fill="white"/>
<path d="M162.292 220.862C161.021 221.385 159.196 222.169 158.61 222.496C158.284 222.659 157.762 222.79 157.437 222.79C156.329 222.79 156.068 223.476 156.068 226.287V229H161.803C164.964 229 167.473 228.902 167.408 228.739C167.342 228.608 166.56 227.039 165.648 225.209C164.736 223.411 163.921 221.614 163.823 221.221C163.595 220.437 163.432 220.404 162.292 220.862Z" fill="white"/>
<path d="M74.2789 223.182C74.2789 224.49 74.3766 226.353 74.4744 227.268L74.7025 229H85.9444L85.1949 227.431C84.7713 226.581 83.9567 224.751 83.4027 223.346L82.36 220.829H74.2789V223.182Z" fill="white"/>
<path d="M111.231 221.548C111.361 221.973 111.687 223.803 112.013 225.634L112.534 229H123.092L121.821 225.96C121.104 224.326 120.322 222.463 120.061 221.875L119.572 220.829H111.035L111.231 221.548Z" fill="white"/>
<defs>
<linearGradient id="paint0_linear_10_322" x1="137.5" y1="0" x2="137.5" y2="275" gradientUnits="userSpaceOnUse">
<stop stop-color="#262626"/>
<stop offset="1" stop-color="#191919"/>
</linearGradient>
</defs>
</svg>
