<svg width="55" height="61" viewBox="0 0 55 61" fill="none" xmlns="http://www.w3.org/2000/svg">
  <path d="M45.6941 22.6156L23.7285 10L20.9828 11.5781V14.7312L18.2371 13.1531L15.4914 14.7312V17.8844L12.7457 16.3063L10 17.8844V43.1156L12.7457 44.6937L15.4914 43.1156V46.2687L18.2371 47.8469L20.9828 46.2687V49.4219L23.7285 51L45.6941 38.3844V35.2313L42.9484 33.6531L45.6941 32.0751V28.9219L42.9484 27.3438L45.6941 25.7657V22.6156ZM15.4914 39.9625L12.7457 41.5406V19.4625L15.4914 21.0406V39.9625ZM23.7285 41.5375V38.3844L34.7113 32.0781L37.457 33.6562L23.7285 41.5375ZM31.9656 30.5L23.7285 35.2313V25.7687L31.9656 30.5ZM34.7113 28.9219L23.7285 22.6156V19.4625L37.457 27.3469L34.7113 28.9219ZM18.2371 16.3063L20.9828 17.8844V21.0375L18.2371 19.4594V16.3063ZM18.2371 22.6156L20.9828 24.1937V36.8093L18.2371 38.3874V22.6156ZM18.2371 41.5375L20.9828 39.9594V43.1126L18.2371 44.6907V41.5375ZM42.9484 36.8063L23.7285 47.8438V44.6907L40.2027 35.2282L42.9484 36.8063ZM42.9484 30.5L40.2027 32.0781L37.457 30.5L40.2027 28.9219L42.9484 30.5ZM40.2027 25.7687L23.7285 16.3063V13.1531L42.9484 24.1907L40.2027 25.7687Z" fill="black"/>
</svg>
