<svg width="1200" height="657" viewBox="0 0 1200 657" fill="none" xmlns="http://www.w3.org/2000/svg">
<g id="og-template-a">
<rect width="1200" height="657" fill="#101010"/>
<g id="template">
<g id="Twitter post - 5">
<g id="Frame 2147253819">
<g id="Open Source Pixel Icon GitHub 1" opacity="0.3">
<path id="Vector" d="M761.542 79.125V87.875H760.083V90.7917H758.625V93.7084H757.167V95.1667H755.708V96.625H754.25V98.0834H751.333V99.5417H749.875V92.25H748.417V90.7917H749.875V89.3334H752.792V87.875H754.25V86.4167H755.708V79.125H754.25V74.75H751.333V76.2084H749.875V77.6667H748.417V76.2084H742.583V77.6667H741.125V76.2084H739.667V74.75H736.75V79.125H735.292V86.4167H736.75V87.875H738.208V89.3334H741.125V92.25H738.208V90.7917H736.75V89.3334H733.833V90.7917H735.292V93.7084H736.75V95.1667H741.125V99.5417H739.667V98.0834H736.75V96.625H735.292V95.1667H733.833V93.7084H732.375V90.7917H730.917V87.875H729.458V79.125H730.917V76.2084H732.375V73.2917H733.833V71.8334H735.292V70.375H738.208V68.9167H741.125V67.4584H749.875V68.9167H752.792V70.375H755.708V71.8334H757.167V73.2917H758.625V76.2084H760.083V79.125H761.542Z" fill="white"/>
</g>
<g id="PARADIGMXYZ/CENTAUR" opacity="0.8">
<text fill="white" style="white-space: pre" xml:space="preserve" font-family="Geist Mono" font-size="30" font-weight="100" letter-spacing="0.01em"><tspan x="994.459" y="94.18">CENTAUR</tspan></text>
<text fill="white" fill-opacity="0.4" style="white-space: pre" xml:space="preserve" font-family="Geist Mono" font-size="30" font-weight="100" letter-spacing="0.01em"><tspan x="775" y="94.18">PARADIGMXYZ/</tspan></text>
</g>
</g>
<g id="Frame 2147253826">
<text id="Route title" fill="white" style="white-space: pre" xml:space="preserve" font-family="Bodoni 72 Oldstyle" font-size="109" letter-spacing="-0.02em"><tspan x="81" y="311.015">Route title</tspan></text>
<text id="Description of the section goes here and might wrap onto two lines or maybe even three lines wow!" opacity="0.6" fill="white" style="white-space: pre" xml:space="preserve" font-family="Source Serif Pro" font-size="39" letter-spacing="-0.02em"><tspan x="81" y="384.368">Description of the section goes here and </tspan><tspan x="81" y="431.368">might wrap onto two lines or maybe </tspan><tspan x="81" y="478.368">even three lines wow!</tspan></text>
</g>
</g>
<g id="Vector_2">
<path d="M877.64 514.311C876.778 514.709 875.927 515.571 875.554 516.407C874.987 517.693 875.232 519.686 876.134 520.933C876.662 521.679 877.318 522.193 878.478 522.746C879.985 523.492 880.487 523.685 881.311 523.865C882.393 524.122 882.715 524.148 882.818 523.993C882.87 523.903 882.947 523.582 883.012 523.286C883.063 522.978 883.179 522.463 883.243 522.116C883.668 520.161 883.72 517.294 883.359 516.497C883.037 515.802 881.788 514.503 881.44 514.503C881.363 514.503 881.311 514.439 881.311 514.375C881.311 514.298 881.195 514.246 881.067 514.246C880.925 514.246 880.77 514.182 880.732 514.118C880.693 514.041 880.126 513.989 879.469 514.002C878.503 514.002 878.169 514.066 877.64 514.311Z" fill="white"/>
<path d="M876.159 525.112V526.077H870.337L869.487 526.951C866.847 529.613 861.283 535.361 861.257 535.438C861.231 535.49 862.326 536.621 863.678 537.971C865.031 539.309 866.254 540.556 866.383 540.723L866.628 541.032L866.834 540.543C867.079 539.952 868.225 538.807 868.573 538.807C868.702 538.807 868.818 538.769 868.818 538.73C868.818 538.679 868.663 538.486 868.47 538.306C868.264 538.113 867.736 537.534 867.272 537.02C866.808 536.493 866.357 535.991 866.28 535.901C866.19 535.811 866.113 535.682 866.113 535.631C866.113 535.49 867.246 534.384 869.268 532.558C870.118 531.786 870.956 531.002 871.123 530.809C871.291 530.603 871.522 530.449 871.638 530.449C871.896 530.449 872.166 530.693 872.166 530.925C872.166 531.015 872.269 531.336 872.411 531.645C872.54 531.94 872.785 532.532 872.952 532.956C873.107 533.381 873.364 534.011 873.532 534.371C874.369 536.274 874.768 537.238 875.386 538.807C875.76 539.759 876.095 540.569 876.133 540.607C876.172 540.646 876.211 540.607 876.249 540.53C876.275 540.453 876.971 539.399 877.808 538.19C878.632 536.968 879.727 535.361 880.217 534.615C880.719 533.856 881.208 533.136 881.324 533.008C881.44 532.879 882.007 532.03 882.599 531.13C883.192 530.23 884.068 528.893 884.544 528.186L885.42 526.887L884.879 526.797C884.209 526.681 882.664 526.488 881.633 526.385C881.208 526.347 880.809 526.257 880.732 526.192C880.667 526.128 880.281 526.077 879.869 526.077C879.16 526.077 878.761 525.948 878.388 525.601C878.284 525.511 878.04 525.344 877.834 525.215C877.615 525.099 877.447 524.945 877.447 524.894C877.447 524.842 877.357 524.791 877.254 524.791C877.151 524.791 877.061 524.739 877.061 524.688C877.061 524.585 876.391 524.148 876.237 524.148C876.198 524.148 876.159 524.585 876.159 525.112Z" fill="white"/>
<path d="M887.764 532.866L887.751 536.351L888.589 538.023L889.439 539.682L895.415 539.579L895.351 539.283C895.261 538.807 895.273 537.225 895.389 536.775L895.505 536.364H891.409L889.787 533.111C888.885 531.336 888.073 529.754 887.97 529.626C887.816 529.407 887.79 529.832 887.764 532.866Z" fill="white"/>
<path d="M884.403 532.223C883.733 533.252 882.767 534.705 882.252 535.451C881.736 536.197 880.796 537.598 880.165 538.55C878.748 540.672 877.653 542.266 877.1 542.999L876.674 543.565L877.486 544.105C878.516 544.812 880.796 546.265 880.873 546.265C880.912 546.265 881.363 546.548 881.891 546.908C882.419 547.256 882.908 547.551 882.986 547.551C883.05 547.551 883.115 547.603 883.115 547.68C883.115 547.744 883.192 547.809 883.295 547.809C883.398 547.809 883.501 547.86 883.527 547.911C883.578 548.066 885.575 549.39 885.639 549.313C885.665 549.287 885.678 545.005 885.665 539.81L885.626 530.346L884.403 532.223Z" fill="white"/>
<path d="M869.565 540.556C868.985 540.865 868.47 541.598 868.38 542.241C868.289 542.922 868.457 543.668 868.792 544.041C868.908 544.195 869.23 544.427 869.5 544.581C870.505 545.147 871.883 544.774 872.411 543.796C872.733 543.192 872.772 542.06 872.501 541.533C872.308 541.16 871.896 540.775 871.432 540.505C871.046 540.299 870.003 540.325 869.565 540.556Z" fill="white"/>
<path d="M897.523 535.988C896.944 536.297 896.428 537.03 896.338 537.673C896.248 538.354 896.415 539.1 896.75 539.473C896.866 539.627 897.188 539.859 897.459 540.013C898.463 540.579 899.842 540.206 900.37 539.229C900.692 538.624 900.73 537.493 900.46 536.965C900.267 536.593 899.854 536.207 899.391 535.937C899.004 535.731 897.961 535.757 897.523 535.988Z" fill="white"/>
<path d="M875.206 545.584C875.155 545.7 875.129 546.844 875.129 548.117C875.142 549.917 875.206 558.867 875.232 560.668C875.232 560.848 875.193 565.644 875.142 571.341C875.103 577.037 875.077 581.731 875.103 581.782C875.129 581.872 875.593 581.731 876.481 581.371C876.623 581.319 876.945 581.204 877.19 581.114C877.434 581.024 877.756 580.908 877.898 580.856C878.04 580.792 878.246 580.728 878.349 580.702C878.503 580.651 878.529 579.519 878.491 572.061C878.452 563.844 878.465 563.471 878.697 563.304C878.825 563.201 879.057 563.111 879.225 563.111C879.379 563.111 879.611 563.059 879.74 562.995C879.856 562.931 880.345 562.699 880.822 562.468C882.535 561.645 884.248 559.69 885.072 557.646C885.523 556.54 885.691 555.408 885.691 553.569V551.821L884.261 550.895C883.475 550.393 882.252 549.635 881.543 549.21C880.835 548.786 879.65 548.04 878.916 547.538C878.181 547.05 877.525 546.651 877.447 546.651C877.383 546.651 877.318 546.587 877.318 546.523C877.318 546.445 877.254 546.394 877.177 546.394C877.1 546.394 876.713 546.163 876.301 545.88C875.902 545.597 875.502 545.365 875.425 545.365C875.348 545.365 875.245 545.468 875.206 545.584Z" fill="white"/>
<path d="M842.478 547.281C842.439 547.358 842.259 547.423 842.091 547.423C841.795 547.423 840.713 547.924 840.636 548.091C840.61 548.156 840.533 548.194 840.455 548.194C840.211 548.194 838.652 549.802 838.098 550.65C837.789 551.113 837.428 551.898 837.274 552.386C837.016 553.235 837.003 553.595 837.003 560.076C836.991 563.818 837.016 566.891 837.042 566.917C837.158 567.033 838.678 566.66 839.296 566.351C839.683 566.171 840.327 565.683 840.739 565.284C841.486 564.538 841.962 563.805 842.452 562.661C842.696 562.056 842.722 561.709 842.8 557.581C842.864 553.209 842.877 553.132 843.186 552.502C843.353 552.142 843.65 551.692 843.83 551.499C843.997 551.293 844.616 550.856 845.182 550.509C845.749 550.162 846.367 549.737 846.548 549.583C846.921 549.249 847.874 548.066 847.81 548.027C847.733 547.976 847.011 547.654 846.728 547.538C846.174 547.32 845.633 547.256 844.126 547.204C843.122 547.166 842.542 547.204 842.478 547.281Z" fill="white"/>
<path d="M853.683 547.294C853.645 547.358 853.413 547.423 853.168 547.423C852.923 547.423 852.692 547.474 852.653 547.551C852.614 547.616 852.46 547.68 852.331 547.68C851.97 547.68 850.708 548.4 849.806 549.12C848.66 550.033 847.823 551.203 847.372 552.515C846.857 553.981 846.792 554.778 846.792 559.986V565.027L846.148 565.888C845.801 566.351 845.208 567.084 844.835 567.509C844.461 567.933 843.933 568.576 843.662 568.949L843.16 569.605L843.212 575.16L843.25 580.728H846.445L846.354 578.928C846.303 577.937 846.303 575.944 846.354 574.504L846.445 571.881L858.462 559.78L858.449 553.479V547.166H856.105C854.688 547.166 853.735 547.217 853.683 547.294Z" fill="white"/>
<path d="M860.497 547.371C860.536 547.487 860.574 550.29 860.574 553.608V559.639H860.948C861.167 559.639 861.373 559.69 861.411 559.767C861.45 559.832 861.656 559.896 861.862 559.896C862.068 559.896 862.274 559.947 862.313 560.025C862.352 560.089 862.558 560.153 862.777 560.153C862.983 560.153 863.15 560.205 863.15 560.282C863.15 560.346 863.318 560.41 863.524 560.41C863.743 560.41 863.936 560.462 863.975 560.526C864.013 560.59 864.181 560.668 864.335 560.706C864.503 560.732 865.675 561.092 866.95 561.503C868.225 561.902 869.616 562.314 870.041 562.416C870.466 562.519 870.917 562.661 871.033 562.738C871.162 562.802 871.406 562.854 871.574 562.854C871.754 562.854 871.935 562.905 871.973 562.982C872.012 563.047 872.192 563.111 872.36 563.111C872.527 563.111 872.707 563.162 872.746 563.239C872.785 563.304 872.862 563.368 872.913 563.368C872.965 563.368 873.004 559.716 873.016 555.267V547.166H866.718C861.025 547.166 860.42 547.191 860.497 547.371Z" fill="white"/>
<path d="M887.326 557.671C887.301 557.723 887.198 558.006 887.12 558.289C887.03 558.572 886.747 559.24 886.489 559.767C886.116 560.513 885.729 561.015 884.776 561.979C884.081 562.674 883.462 563.239 883.385 563.239C883.308 563.239 883.243 563.291 883.243 563.368C883.243 563.445 884.853 563.458 887.661 563.407C892.053 563.329 892.092 563.329 892.156 563.587C892.234 563.857 891.667 566.248 891.306 567.174C891.075 567.804 890.418 570.029 890.212 570.903C890.07 571.482 890.083 571.688 890.315 572.511C890.456 573.038 890.637 573.732 890.727 574.067C890.868 574.671 890.868 574.671 891.139 574.414C891.281 574.285 891.487 574.17 891.577 574.17C891.667 574.17 891.744 574.105 891.744 574.041C891.744 573.964 891.809 573.912 891.886 573.912C892.169 573.912 892.775 573.372 892.775 573.128C892.775 572.987 892.826 572.781 892.891 572.652C892.955 572.537 893.135 571.996 893.29 571.469C893.445 570.942 893.651 570.273 893.741 569.99C893.831 569.708 894.011 569.065 894.127 568.576C894.346 567.65 894.475 567.251 895.286 564.808C895.724 563.484 895.763 563.265 895.686 562.468C895.647 561.979 895.531 561.362 895.441 561.092C895.325 560.706 895.158 560.526 894.642 560.256C894.282 560.063 893.329 559.69 892.517 559.433C891.706 559.163 890.984 558.906 890.92 558.842C890.843 558.79 890.662 558.739 890.495 558.739C890.327 558.739 890.083 558.674 889.941 558.61C889.799 558.533 889.568 558.417 889.426 558.353C889.284 558.276 889.078 558.224 888.975 558.224C888.872 558.224 888.782 558.16 888.782 558.096C888.782 558.019 888.653 557.967 888.486 557.967C888.318 557.967 888.138 557.916 888.073 557.851C887.88 557.671 887.391 557.556 887.326 557.671Z" fill="white"/>
<path d="M858.81 562.494C858.243 563.085 856.929 564.371 855.899 565.361L854.031 567.161L853.941 568.357C853.902 569.026 853.838 569.72 853.799 569.9L853.735 570.248H855.319C856.195 570.248 857.032 570.299 857.2 570.35C857.47 570.453 857.702 570.26 859.273 568.679C861.914 566.03 862.764 565.001 863.768 563.214L864.026 562.764L863.614 562.622C863.382 562.532 863.073 562.468 862.918 562.468C862.777 562.468 862.609 562.404 862.571 562.339C862.532 562.262 862.326 562.211 862.12 562.211C861.914 562.211 861.708 562.146 861.669 562.082C861.63 562.005 861.424 561.954 861.205 561.954C860.999 561.954 860.832 561.889 860.832 561.825C860.832 561.748 860.664 561.696 860.471 561.696C860.278 561.696 860.046 561.632 859.982 561.568C859.892 561.478 859.518 561.773 858.81 562.494Z" fill="white"/>
<path d="M887.198 572.318C887.146 572.369 886.837 572.434 886.502 572.472C886.154 572.498 885.871 572.537 885.845 572.562C885.832 572.575 885.832 573.72 885.845 575.108L885.884 577.629L886.463 577.269C887.146 576.844 888.215 576.24 888.614 576.047C888.782 575.97 888.911 575.841 888.911 575.777C888.911 575.7 888.782 575.211 888.64 574.684C888.383 573.771 888.164 572.755 888.151 572.395C888.138 572.305 887.958 572.241 887.713 572.241C887.468 572.241 887.236 572.279 887.198 572.318Z" fill="white"/>
<path d="M854.121 572.909C854.263 573.141 854.649 574.002 854.971 574.813C855.59 576.343 856.968 579.57 857.303 580.303L857.496 580.728H860.973L860.793 580.368C860.69 580.175 860.536 579.84 860.445 579.635C860.355 579.416 860.239 579.146 860.175 579.03C860.111 578.902 860.059 578.747 860.059 578.67C860.059 578.606 859.892 578.169 859.673 577.706C859.467 577.243 859.286 576.831 859.286 576.806C859.286 576.767 859.17 576.497 859.029 576.189C858.887 575.893 858.488 574.954 858.14 574.105L857.496 572.562L853.876 572.485L854.121 572.909Z" fill="white"/>
<path d="M878.619 582.798C878.117 583.004 877.396 583.312 877.164 583.441C877.035 583.505 876.829 583.557 876.7 583.557C876.262 583.557 876.159 583.827 876.159 584.933V586H878.426C879.676 586 880.667 585.961 880.642 585.897C880.616 585.846 880.307 585.228 879.946 584.508C879.585 583.801 879.263 583.094 879.225 582.94C879.135 582.631 879.07 582.618 878.619 582.798Z" fill="white"/>
<path d="M843.83 583.711C843.83 584.225 843.869 584.958 843.907 585.318L843.997 586H848.441L848.145 585.383C847.977 585.048 847.655 584.328 847.436 583.775L847.024 582.785H843.83V583.711Z" fill="white"/>
<path d="M858.436 583.068C858.488 583.235 858.616 583.955 858.745 584.676L858.951 586H863.124L862.622 584.804C862.339 584.161 862.03 583.428 861.927 583.197L861.733 582.785H858.359L858.436 583.068Z" fill="white"/>
<path d="M933.72 576.956C930.855 576.956 928.337 576.067 926.168 574.289C924.038 572.51 922.373 570.016 921.173 566.807C920.011 563.559 919.43 559.731 919.43 555.323C919.43 551.07 920.069 547.359 921.347 544.188C922.664 540.979 924.406 538.504 926.575 536.764C928.783 534.986 931.223 534.097 933.895 534.097C935.483 534.097 936.877 534.251 938.077 534.56C939.278 534.831 940.343 535.198 941.272 535.662C941.737 535.933 941.97 536.339 941.97 536.88L942.144 545.696C942.144 546.353 941.911 546.682 941.447 546.682C941.021 546.682 940.75 546.431 940.633 545.928L940.053 543.782C939.239 540.766 938.29 538.678 937.206 537.518C936.16 536.358 934.902 535.778 933.43 535.778C930.719 535.778 928.453 537.46 926.633 540.824C924.852 544.149 923.961 548.982 923.961 555.323C923.961 559.654 924.406 563.308 925.297 566.285C926.227 569.262 927.408 571.505 928.841 573.013C930.312 574.521 931.862 575.274 933.488 575.274C935.231 575.274 936.625 574.733 937.671 573.651C938.755 572.568 939.665 570.48 940.401 567.387L941.098 564.545C941.214 563.965 941.524 563.714 942.028 563.791C942.454 563.868 942.667 564.197 942.667 564.777L942.434 574.173C942.434 574.714 942.183 575.12 941.679 575.39C940.75 575.854 939.646 576.222 938.368 576.492C937.129 576.802 935.579 576.956 933.72 576.956Z" fill="white"/>
<path d="M948.155 576.434C947.574 576.434 947.283 576.222 947.283 575.796C947.283 575.448 947.535 575.216 948.038 575.1L949.375 574.868C950.188 574.714 950.711 574.501 950.943 574.231C951.214 573.96 951.35 573.419 951.35 572.607V538.504C951.35 537.692 951.214 537.151 950.943 536.88C950.711 536.61 950.188 536.397 949.375 536.242L948.038 536.01C947.535 535.894 947.283 535.662 947.283 535.314C947.283 534.889 947.574 534.676 948.155 534.676H967.674C968.564 534.676 969.048 535.121 969.126 536.01L969.591 545.638C969.668 546.295 969.416 546.624 968.835 546.624C968.371 546.624 968.1 546.373 968.022 545.87L967.674 543.724C967.248 541.095 966.376 539.181 965.059 537.982C963.743 536.745 961.923 536.126 959.599 536.126C958.05 536.126 956.965 536.358 956.346 536.822C955.765 537.248 955.474 538.021 955.474 539.142V553.12C955.474 553.661 955.745 553.932 956.288 553.932H959.192C960.896 553.932 961.942 553.023 962.329 551.206L962.91 548.306C963.065 547.726 963.394 547.475 963.898 547.552C964.324 547.629 964.537 547.958 964.537 548.538V561.587C964.537 562.167 964.324 562.496 963.898 562.573C963.394 562.65 963.065 562.399 962.91 561.819L962.329 558.977C962.058 557.624 961.671 556.735 961.167 556.309C960.703 555.884 960.025 555.671 959.134 555.671H956.288C955.745 555.671 955.474 555.942 955.474 556.483V571.041C955.474 572.433 955.823 573.438 956.52 574.057C957.256 574.675 958.573 574.984 960.47 574.984C962.407 574.984 964.053 574.501 965.408 573.535C966.802 572.529 967.77 570.673 968.313 567.967L969.01 564.545C969.126 564.042 969.416 563.791 969.881 563.791C970.423 563.791 970.656 564.12 970.578 564.777L969.997 575.1C969.92 575.99 969.436 576.434 968.545 576.434H948.155Z" fill="white"/>
<path d="M998.586 576.956C997.966 576.956 997.444 576.492 997.018 575.564L981.275 541.462C981.158 541.191 981.003 541.076 980.81 541.114C980.655 541.153 980.577 541.327 980.577 541.636V571.447C980.577 572.529 980.752 573.361 981.1 573.941C981.488 574.482 982.165 574.83 983.133 574.984L983.889 575.1C984.392 575.139 984.644 575.371 984.644 575.796C984.644 576.222 984.353 576.434 983.772 576.434H975.465C974.884 576.434 974.594 576.222 974.594 575.796C974.594 575.371 974.846 575.139 975.349 575.1L976.104 574.984C977.111 574.83 977.808 574.482 978.196 573.941C978.583 573.361 978.777 572.529 978.777 571.447V538.504C978.777 537.692 978.641 537.151 978.37 536.88C978.138 536.61 977.576 536.397 976.685 536.242L975.349 536.01C974.846 535.894 974.594 535.662 974.594 535.314C974.594 534.889 974.884 534.676 975.465 534.676H981.681C982.649 534.676 983.327 535.102 983.714 535.952L997.424 566.053C997.54 566.285 997.676 566.382 997.831 566.343C998.024 566.304 998.121 566.169 998.121 565.937V539.664C998.121 538.427 997.908 537.576 997.482 537.112C997.056 536.61 996.514 536.3 995.856 536.184L994.81 536.01C994.307 535.894 994.055 535.662 994.055 535.314C994.055 534.889 994.345 534.676 994.926 534.676H1003.23C1003.81 534.676 1004.1 534.889 1004.1 535.314C1004.1 535.74 1003.85 535.972 1003.35 536.01L1002.59 536.126C1001.59 536.281 1000.89 536.61 1000.5 537.112C1000.12 537.576 999.922 538.427 999.922 539.664V575.1C999.922 575.796 999.787 576.28 999.516 576.55C999.283 576.821 998.973 576.956 998.586 576.956Z" fill="white"/>
<path d="M1013.05 576.434C1012.47 576.434 1012.18 576.222 1012.18 575.796C1012.18 575.371 1012.43 575.139 1012.94 575.1L1015.55 574.694C1016.33 574.579 1016.85 574.385 1017.12 574.115C1017.39 573.805 1017.53 573.245 1017.53 572.433V537.634C1017.53 537.093 1017.41 536.706 1017.18 536.474C1016.95 536.242 1016.46 536.126 1015.73 536.126C1014.29 536.126 1012.88 536.745 1011.48 537.982C1010.09 539.22 1009.18 541.211 1008.75 543.956L1008.46 545.87C1008.39 546.373 1008.12 546.624 1007.65 546.624C1007.07 546.624 1006.82 546.295 1006.9 545.638L1007.42 535.14C1007.5 534.251 1007.84 533.807 1008.46 533.807C1008.74 533.807 1008.99 533.884 1009.22 534.039C1009.45 534.155 1009.84 534.29 1010.38 534.445C1010.96 534.599 1011.87 534.676 1013.11 534.676H1026.07C1027.31 534.676 1028.2 534.599 1028.74 534.445C1029.32 534.29 1029.73 534.155 1029.96 534.039C1030.23 533.884 1030.48 533.807 1030.71 533.807C1031.33 533.807 1031.68 534.251 1031.76 535.14L1032.28 545.638C1032.36 546.295 1032.11 546.624 1031.53 546.624C1031.06 546.624 1030.79 546.373 1030.71 545.87L1030.42 543.956C1030.04 541.211 1029.14 539.22 1027.75 537.982C1026.36 536.745 1024.92 536.126 1023.45 536.126C1022.72 536.126 1022.23 536.242 1022 536.474C1021.77 536.706 1021.65 537.093 1021.65 537.634V572.433C1021.65 573.245 1021.79 573.805 1022.06 574.115C1022.37 574.385 1022.89 574.579 1023.63 574.694L1026.24 575.1C1026.74 575.139 1027 575.371 1027 575.796C1027 576.222 1026.71 576.434 1026.12 576.434H1013.05Z" fill="white"/>
<path d="M1031.52 576.434C1030.94 576.434 1030.65 576.241 1030.65 575.854C1030.65 575.468 1030.92 575.216 1031.47 575.1L1032.34 574.926C1033.11 574.772 1033.69 574.405 1034.08 573.825C1034.47 573.206 1034.8 572.355 1035.07 571.273L1044.07 535.024C1044.15 534.638 1044.27 534.387 1044.42 534.271C1044.61 534.155 1044.79 534.097 1044.94 534.097C1045.14 534.097 1045.31 534.155 1045.47 534.271C1045.66 534.387 1045.79 534.638 1045.87 535.024L1055.05 571.795C1055.32 572.877 1055.63 573.631 1055.98 574.057C1056.33 574.482 1056.87 574.772 1057.61 574.926L1058.48 575.1C1059.02 575.216 1059.29 575.468 1059.29 575.854C1059.29 576.241 1059 576.434 1058.42 576.434H1048.49C1047.94 576.434 1047.67 576.222 1047.67 575.796C1047.67 575.371 1048 575.139 1048.66 575.1L1049.76 574.984C1050.42 574.907 1050.83 574.694 1050.98 574.347C1051.18 573.999 1051.18 573.399 1050.98 572.549L1048.78 563.559C1048.54 562.554 1047.91 562.051 1046.86 562.051H1040.76C1039.75 562.051 1039.11 562.554 1038.84 563.559L1036.87 571.331C1036.29 573.535 1036.87 574.752 1038.61 574.984L1039.48 575.1C1040.14 575.216 1040.47 575.448 1040.47 575.796C1040.47 576.222 1040.2 576.434 1039.66 576.434H1031.52ZM1040.59 560.311H1046.98C1047.6 560.311 1047.85 559.983 1047.73 559.325L1044.01 543.782H1043.72L1039.83 559.325C1039.71 559.983 1039.97 560.311 1040.59 560.311Z" fill="white"/>
<path d="M1073.29 576.956C1071.19 576.956 1069.34 576.473 1067.71 575.506C1066.12 574.501 1064.88 573.129 1063.99 571.389C1063.1 569.61 1062.66 567.58 1062.66 565.299V538.504C1062.66 537.692 1062.52 537.151 1062.25 536.88C1062.02 536.61 1061.49 536.397 1060.68 536.242L1059.34 536.01C1058.84 535.894 1058.59 535.662 1058.59 535.314C1058.59 534.889 1058.88 534.676 1059.46 534.676H1070.09C1070.67 534.676 1070.96 534.908 1070.96 535.372C1070.96 535.72 1070.75 535.933 1070.32 536.01L1068.75 536.242C1067.98 536.358 1067.46 536.571 1067.19 536.88C1066.92 537.19 1066.78 537.75 1066.78 538.562V565.357C1066.78 568.295 1067.44 570.577 1068.75 572.201C1070.07 573.825 1071.91 574.636 1074.27 574.636C1076.67 574.636 1078.53 573.825 1079.85 572.201C1081.17 570.577 1081.83 568.295 1081.83 565.357V539.722C1081.83 537.634 1081.17 536.474 1079.85 536.242L1078.28 536.01C1077.86 535.933 1077.64 535.72 1077.64 535.372C1077.64 534.908 1077.93 534.676 1078.51 534.676H1086.88C1087.46 534.676 1087.75 534.889 1087.75 535.314C1087.75 535.662 1087.5 535.894 1087 536.01L1085.66 536.242C1084.34 536.474 1083.68 537.615 1083.68 539.664V565.299C1083.68 568.817 1082.74 571.64 1080.84 573.767C1078.94 575.893 1076.42 576.956 1073.29 576.956Z" fill="white"/>
<path d="M1115.76 576.956C1112.39 576.956 1110.24 574.752 1109.31 570.345L1107.97 563.907C1107.55 561.819 1107.06 560.234 1106.52 559.151C1106.02 558.069 1105.3 557.334 1104.37 556.947C1103.48 556.561 1102.24 556.367 1100.66 556.367C1100.11 556.367 1099.69 556.522 1099.38 556.831C1099.07 557.102 1098.91 557.45 1098.91 557.875V572.375C1098.91 573.187 1099.07 573.747 1099.38 574.057C1099.69 574.327 1100.38 574.559 1101.47 574.752L1103.62 575.1C1104.04 575.178 1104.26 575.39 1104.26 575.738C1104.26 576.202 1103.97 576.434 1103.39 576.434H1091.59C1091.01 576.434 1090.72 576.222 1090.72 575.796C1090.72 575.448 1090.97 575.216 1091.48 575.1L1092.81 574.868C1093.63 574.714 1094.15 574.501 1094.38 574.231C1094.65 573.96 1094.79 573.419 1094.79 572.607V538.504C1094.79 537.692 1094.65 537.151 1094.38 536.88C1094.15 536.61 1093.63 536.397 1092.81 536.242L1091.48 536.01C1090.97 535.894 1090.72 535.662 1090.72 535.314C1090.72 534.889 1091.01 534.676 1091.59 534.676H1103.39C1105.67 534.676 1107.7 535.121 1109.49 536.01C1111.27 536.9 1112.66 538.137 1113.67 539.722C1114.67 541.269 1115.18 543.067 1115.18 545.116C1115.18 547.552 1114.44 549.756 1112.97 551.728C1111.5 553.661 1109.64 555.033 1107.39 555.845C1107.12 555.923 1106.97 556.058 1106.93 556.251C1106.93 556.406 1107.06 556.541 1107.34 556.657C1108.58 557.237 1109.54 558.049 1110.24 559.093C1110.98 560.137 1111.54 561.529 1111.93 563.269L1113.2 569.185C1113.63 571.195 1114.13 572.626 1114.71 573.477C1115.29 574.327 1116.03 574.752 1116.92 574.752C1117.23 574.752 1117.5 574.714 1117.73 574.636C1118.01 574.521 1118.33 574.327 1118.72 574.057C1119.03 573.863 1119.32 573.825 1119.59 573.941C1119.86 574.018 1120 574.211 1120 574.521C1120 575.178 1119.57 575.758 1118.72 576.26C1117.87 576.724 1116.88 576.956 1115.76 576.956ZM1102.8 554.917C1105.44 554.917 1107.43 554.048 1108.79 552.308C1110.14 550.529 1110.82 548.17 1110.82 545.232C1110.82 542.371 1110.03 540.148 1108.44 538.562C1106.89 536.938 1104.74 536.126 1101.99 536.126C1099.94 536.126 1098.91 536.9 1098.91 538.446V551.728C1098.91 553.854 1100.21 554.917 1102.8 554.917Z" fill="white"/>
</g>
</g>
<text id="CATEGORY" opacity="0.5" fill="white" style="white-space: pre" xml:space="preserve" font-family="Geist Mono" font-size="30" font-weight="100" letter-spacing="0.01em"><tspan x="81" y="94.18">CATEGORY</tspan></text>
</g>
</svg>
